<svg xmlns="http://www.w3.org/2000/svg" width="324" height="56" viewBox="0 0 324 56" fill="none"><path d="M208.917 48.7949C208.628 48.7971 208.348 48.8961 208.121 49.0761C207.895 49.2561 207.735 49.5068 207.668 49.7881C207.6 50.0694 207.629 50.3652 207.749 50.6283C207.87 50.8914 208.075 51.1066 208.331 51.2396V52.7763H209.406V51.288C209.683 51.1743 209.913 50.9678 210.055 50.7039C210.197 50.4399 210.243 50.1348 210.186 49.8406C210.128 49.5464 209.97 49.2813 209.739 49.0906C209.507 48.8999 209.217 48.7954 208.917 48.7949Z" fill="white"></path><path d="M213.167 45.7914V43.4918C213.19 42.3269 212.751 41.2002 211.945 40.3584C211.14 39.5166 210.033 39.0282 208.869 39C207.704 39.0282 206.598 39.5166 205.792 40.3584C204.986 41.2002 204.547 42.3269 204.57 43.4918V45.7914H202.958V54.9254C202.958 55.2104 203.072 55.4837 203.273 55.6853C203.475 55.8868 203.748 56 204.033 56H213.704C213.989 56 214.263 55.8868 214.464 55.6853C214.666 55.4837 214.779 55.2104 214.779 54.9254V45.7914H213.167ZM205.645 43.4918C205.622 42.6118 205.948 41.7585 206.552 41.1182C207.156 40.4779 207.989 40.1027 208.869 40.0746C209.748 40.1027 210.581 40.4779 211.185 41.1182C211.789 41.7585 212.116 42.6118 212.092 43.4918V45.7914H205.645V43.4918ZM204.033 54.9254V46.866H213.704V54.9254H204.033Z" fill="white"></path><path d="M85.3505 46.859C86.1233 46.859 86.7818 46.5835 87.2186 46.0728L86.6541 45.5352C86.3114 45.9115 85.8881 46.0929 85.3976 46.0929C84.4232 46.0929 83.7177 45.4075 83.7177 44.4399C83.7177 43.4723 84.4232 42.7869 85.3976 42.7869C85.8881 42.7869 86.3114 42.9683 86.6541 43.3379L87.2186 42.8071C86.7818 42.2964 86.1233 42.0209 85.3572 42.0209C83.9125 42.0209 82.8374 43.0355 82.8374 44.4399C82.8374 45.8443 83.9125 46.859 85.3505 46.859Z" fill="white"></path><path d="M89.4564 46.8388C90.5719 46.8388 91.3715 46.0728 91.3715 44.9977C91.3715 43.9225 90.5719 43.1632 89.4564 43.1632C88.3544 43.1632 87.548 43.9225 87.548 44.9977C87.548 46.0728 88.3544 46.8388 89.4564 46.8388ZM89.4564 46.1198C88.8516 46.1198 88.3947 45.6831 88.3947 44.9977C88.3947 44.3123 88.8516 43.8755 89.4564 43.8755C90.0679 43.8755 90.5248 44.3123 90.5248 44.9977C90.5248 45.6831 90.0679 46.1198 89.4564 46.1198Z" fill="white"></path><path d="M96.7037 43.1632C96.1325 43.1632 95.6487 43.3917 95.3598 43.7612C95.1112 43.3581 94.6744 43.1632 94.1502 43.1632C93.6597 43.1632 93.2431 43.3379 92.9743 43.6605V43.2035H92.1747V46.7918H93.0146V44.9708C93.0146 44.2585 93.3909 43.8956 93.9487 43.8956C94.4594 43.8956 94.755 44.2047 94.755 44.8431V46.7918H95.595V44.9708C95.595 44.2585 95.978 43.8956 96.529 43.8956C97.0397 43.8956 97.3353 44.2047 97.3353 44.8431V46.7918H98.1753V44.7356C98.1753 43.6537 97.5705 43.1632 96.7037 43.1632Z" fill="white"></path><path d="M101.238 43.1632C100.747 43.1632 100.33 43.3312 100.048 43.6739V43.2035H99.2486V48.0954H100.089V46.355C100.378 46.6843 100.781 46.8388 101.238 46.8388C102.286 46.8388 103.059 46.1131 103.059 44.9977C103.059 43.8889 102.286 43.1632 101.238 43.1632ZM101.144 46.1198C100.539 46.1198 100.075 45.6831 100.075 44.9977C100.075 44.3123 100.539 43.8755 101.144 43.8755C101.748 43.8755 102.205 44.3123 102.205 44.9977C102.205 45.6831 101.748 46.1198 101.144 46.1198Z" fill="white"></path><path d="M104.655 43.7277V43.2035H103.855V46.7918H104.695V45.0514C104.695 44.319 105.098 43.9427 105.737 43.9427C105.797 43.9427 105.858 43.9494 105.932 43.9628V43.1632C105.334 43.1632 104.897 43.3514 104.655 43.7277Z" fill="white"></path><path d="M107.995 43.1632C107.417 43.1632 106.86 43.311 106.477 43.6067L106.806 44.2182C107.075 43.9964 107.491 43.862 107.894 43.862C108.492 43.862 108.788 44.151 108.788 44.6415V44.6953H107.861C106.772 44.6953 106.369 45.1656 106.369 45.7637C106.369 46.3886 106.887 46.8388 107.706 46.8388C108.244 46.8388 108.634 46.6641 108.835 46.355V46.7918H109.628V44.6886C109.628 43.6537 109.03 43.1632 107.995 43.1632ZM107.881 46.2273C107.451 46.2273 107.196 46.0325 107.196 45.7301C107.196 45.468 107.35 45.253 107.921 45.253H108.788V45.6696C108.647 46.0392 108.291 46.2273 107.881 46.2273Z" fill="white"></path><path d="M84.6315 53.234C85.9217 53.234 86.5332 52.5889 86.5332 51.8363C86.5332 50.1094 83.7445 50.7612 83.7445 49.76C83.7445 49.4038 84.0402 49.1216 84.7659 49.1216C85.1758 49.1216 85.6395 49.2425 86.0628 49.4912L86.3383 48.8125C85.9284 48.5437 85.3371 48.3959 84.7726 48.3959C83.4825 48.3959 82.8777 49.041 82.8777 49.8003C82.8777 51.5474 85.6731 50.8821 85.6731 51.8968C85.6731 52.2462 85.364 52.5083 84.6315 52.5083C84.0536 52.5083 83.4556 52.2932 83.0793 51.9909L82.7769 52.6695C83.1667 53.0055 83.8991 53.234 84.6315 53.234Z" fill="white"></path><path d="M90.692 51.3928C90.692 50.2706 89.9259 49.5382 88.8777 49.5382C87.8093 49.5382 87.0231 50.3042 87.0231 51.3727C87.0231 52.4411 87.8025 53.2138 89.0054 53.2138C89.6236 53.2138 90.1275 53.0122 90.4501 52.6292L89.9999 52.1118C89.7445 52.3739 89.4287 52.5015 89.0255 52.5015C88.4006 52.5015 87.9638 52.1656 87.863 51.6414H90.6785C90.6852 51.5608 90.692 51.46 90.692 51.3928ZM88.8777 50.2102C89.4287 50.2102 89.8251 50.5663 89.8923 51.0837H87.8563C87.9369 50.5596 88.3334 50.2102 88.8777 50.2102Z" fill="white"></path><path d="M94.2605 49.5785V50.0556C93.9649 49.6995 93.5214 49.5382 93.0174 49.5382C91.9893 49.5382 91.2031 50.2236 91.2031 51.2651C91.2031 52.3067 91.9893 53.0055 93.0174 53.0055C93.5012 53.0055 93.9246 52.851 94.2202 52.5284V52.7166C94.2202 53.4423 93.8708 53.8051 93.0779 53.8051C92.5806 53.8051 92.07 53.6372 91.7541 53.3751L91.3778 54.0067C91.7877 54.3427 92.453 54.5174 93.1249 54.5174C94.3815 54.5174 95.0602 53.9261 95.0602 52.6225V49.5785H94.2605ZM93.1451 52.2932C92.5067 52.2932 92.0498 51.8766 92.0498 51.2651C92.0498 50.6604 92.5067 50.2505 93.1451 50.2505C93.7767 50.2505 94.2337 50.6604 94.2337 51.2651C94.2337 51.8766 93.7767 52.2932 93.1451 52.2932Z" fill="white"></path><path d="M98.7985 49.5785V51.3928C98.7985 52.1118 98.4021 52.4747 97.8175 52.4747C97.2866 52.4747 96.9775 52.1656 96.9775 51.5138V49.5785H96.1376V51.628C96.1376 52.7099 96.7625 53.2138 97.6831 53.2138C98.1467 53.2138 98.5701 53.0391 98.8388 52.7099V53.1668H99.6385V49.5785H98.7985Z" fill="white"></path><path d="M101.538 50.1027V49.5785H100.738V53.1668H101.578V51.4264C101.578 50.694 101.981 50.3177 102.62 50.3177C102.68 50.3177 102.741 50.3244 102.815 50.3378V49.5382C102.217 49.5382 101.78 49.7264 101.538 50.1027Z" fill="white"></path><path d="M104.878 49.5382C104.3 49.5382 103.743 49.686 103.36 49.9817L103.689 50.5932C103.958 50.3714 104.374 50.237 104.777 50.237C105.375 50.237 105.671 50.526 105.671 51.0165V51.0703H104.744C103.655 51.0703 103.252 51.5406 103.252 52.1387C103.252 52.7636 103.77 53.2138 104.589 53.2138C105.127 53.2138 105.517 53.0391 105.718 52.73V53.1668H106.511V51.0636C106.511 50.0287 105.913 49.5382 104.878 49.5382ZM104.764 52.6023C104.334 52.6023 104.079 52.4075 104.079 52.1051C104.079 51.843 104.233 51.628 104.804 51.628H105.671V52.0446C105.53 52.4142 105.174 52.6023 104.764 52.6023Z" fill="white"></path><path d="M152.631 46.859C153.922 46.859 154.533 46.2139 154.533 45.4613C154.533 43.7344 151.744 44.3862 151.744 43.3849C151.744 43.0288 152.04 42.7466 152.766 42.7466C153.176 42.7466 153.639 42.8675 154.063 43.1162L154.338 42.4375C153.928 42.1687 153.337 42.0209 152.773 42.0209C151.482 42.0209 150.878 42.6659 150.878 43.4253C150.878 45.1724 153.673 44.5071 153.673 45.5218C153.673 45.8712 153.364 46.1333 152.631 46.1333C152.054 46.1333 151.456 45.9182 151.079 45.6158L150.777 46.2945C151.167 46.6305 151.899 46.859 152.631 46.859Z" fill="white"></path><path d="M156.689 43.1632C156.112 43.1632 155.554 43.311 155.171 43.6067L155.5 44.2182C155.769 43.9964 156.185 43.862 156.589 43.862C157.187 43.862 157.482 44.151 157.482 44.6415V44.6953H156.555C155.467 44.6953 155.063 45.1656 155.063 45.7637C155.063 46.3886 155.581 46.8388 156.401 46.8388C156.938 46.8388 157.328 46.6641 157.529 46.355V46.7918H158.322V44.6885C158.322 43.6537 157.724 43.1632 156.689 43.1632ZM156.575 46.2273C156.145 46.2273 155.89 46.0325 155.89 45.7301C155.89 45.468 156.044 45.253 156.616 45.253H157.482V45.6696C157.341 46.0392 156.985 46.2273 156.575 46.2273Z" fill="white"></path><path d="M161.322 45.9989C161.194 46.0997 161.026 46.1467 160.852 46.1467C160.529 46.1467 160.354 45.9585 160.354 45.6091V43.9023H161.315V43.2304H160.354V42.4106H159.515V43.2304H158.923V43.9023H159.515V45.6293C159.515 46.4222 159.965 46.8388 160.751 46.8388C161.053 46.8388 161.356 46.7582 161.557 46.5969L161.322 45.9989Z" fill="white"></path><path d="M162.672 42.6122C162.987 42.6122 163.209 42.3837 163.209 42.0881C163.209 41.8126 162.981 41.6042 162.672 41.6042C162.362 41.6042 162.134 41.826 162.134 42.1082C162.134 42.3904 162.362 42.6122 162.672 42.6122ZM162.248 46.7918H163.088V43.2035H162.248V46.7918Z" fill="white"></path><path d="M165.299 46.8388C166.307 46.8388 166.926 46.402 166.926 45.7301C166.926 44.3257 164.708 44.9708 164.708 44.245C164.708 44.0099 164.95 43.8419 165.461 43.8419C165.803 43.8419 166.146 43.9091 166.489 44.1107L166.811 43.4723C166.489 43.2774 165.944 43.1632 165.467 43.1632C164.5 43.1632 163.888 43.6067 163.888 44.2854C163.888 45.7166 166.106 45.0716 166.106 45.757C166.106 46.0056 165.884 46.1534 165.353 46.1534C164.903 46.1534 164.419 46.0056 164.103 45.7973L163.781 46.4356C164.103 46.6641 164.701 46.8388 165.299 46.8388Z" fill="white"></path><path d="M169.107 42.4375C169.282 42.4375 169.443 42.498 169.571 42.5853L169.806 41.9537C169.618 41.8193 169.335 41.7588 169.047 41.7588C168.213 41.7588 167.763 42.2493 167.763 43.0019V43.2304H167.172V43.9023H167.763V46.7918H168.603V43.9023H169.564V43.2304H168.576V43.0154C168.576 42.6323 168.758 42.4375 169.107 42.4375Z" fill="white"></path><path d="M171.435 43.1632C170.857 43.1632 170.299 43.311 169.916 43.6067L170.245 44.2182C170.514 43.9964 170.931 43.862 171.334 43.862C171.932 43.862 172.227 44.151 172.227 44.6415V44.6953H171.3C170.212 44.6953 169.808 45.1656 169.808 45.7637C169.808 46.3886 170.326 46.8388 171.146 46.8388C171.683 46.8388 172.073 46.6641 172.274 46.355V46.7918H173.067V44.6885C173.067 43.6537 172.469 43.1632 171.435 43.1632ZM171.32 46.2273C170.89 46.2273 170.635 46.0325 170.635 45.7301C170.635 45.468 170.789 45.253 171.361 45.253H172.227V45.6696C172.086 46.0392 171.73 46.2273 171.32 46.2273Z" fill="white"></path><path d="M175.818 46.1198C175.2 46.1198 174.729 45.6965 174.729 44.9976C174.729 44.3055 175.2 43.8755 175.818 43.8755C176.174 43.8755 176.496 44.03 176.711 44.3727L177.357 43.9964C177.081 43.4521 176.523 43.1632 175.824 43.1632C174.689 43.1632 173.882 43.9225 173.882 44.9976C173.882 45.9451 174.507 46.6507 175.428 46.8052L175.26 47.4301H175.468C175.724 47.4301 175.824 47.5242 175.824 47.6519C175.824 47.7997 175.717 47.8938 175.468 47.8938C175.3 47.8938 175.153 47.8602 175.011 47.7863L174.857 48.1827C175.025 48.2768 175.233 48.3238 175.475 48.3238C176.026 48.3238 176.389 48.0752 176.389 47.6855C176.389 47.3965 176.201 47.1681 175.804 47.121L175.878 46.8388C176.55 46.8254 177.088 46.523 177.357 45.9989L176.711 45.6226C176.496 45.9653 176.174 46.1198 175.818 46.1198Z" fill="white"></path><path d="M179.097 42.2695C179.339 42.2695 179.568 42.713 180.011 42.713C180.441 42.713 180.723 42.3568 180.737 41.8327H180.287C180.273 42.0746 180.146 42.2157 179.957 42.2157C179.715 42.2157 179.487 41.7722 179.044 41.7722C178.613 41.7722 178.331 42.1217 178.318 42.6727H178.768C178.781 42.4173 178.909 42.2695 179.097 42.2695ZM179.453 43.1632C178.876 43.1632 178.318 43.311 177.935 43.6067L178.264 44.2182C178.533 43.9964 178.949 43.862 179.353 43.862C179.951 43.862 180.246 44.151 180.246 44.6415V44.6953H179.319C178.23 44.6953 177.827 45.1656 177.827 45.7637C177.827 46.3886 178.345 46.8388 179.164 46.8388C179.702 46.8388 180.092 46.6641 180.293 46.355V46.7918H181.086V44.6885C181.086 43.6537 180.488 43.1632 179.453 43.1632ZM179.339 46.2273C178.909 46.2273 178.654 46.0325 178.654 45.7301C178.654 45.468 178.808 45.253 179.379 45.253H180.246V45.6696C180.105 46.0392 179.749 46.2273 179.339 46.2273Z" fill="white"></path><path d="M183.81 46.8388C184.925 46.8388 185.725 46.0728 185.725 44.9976C185.725 43.9225 184.925 43.1632 183.81 43.1632C182.708 43.1632 181.901 43.9225 181.901 44.9976C181.901 46.0728 182.708 46.8388 183.81 46.8388ZM183.81 46.1198C183.205 46.1198 182.748 45.683 182.748 44.9976C182.748 44.3122 183.205 43.8755 183.81 43.8755C184.421 43.8755 184.878 44.3122 184.878 44.9976C184.878 45.683 184.421 46.1198 183.81 46.1198Z" fill="white"></path><path d="M154.385 52.226C154.083 52.4007 153.754 52.4679 153.418 52.4679C152.423 52.4679 151.718 51.7691 151.718 50.8149C151.718 49.8406 152.423 49.1619 153.424 49.1619C153.928 49.1619 154.352 49.3299 154.721 49.6995L155.272 49.1619C154.829 48.6579 154.17 48.3959 153.384 48.3959C151.912 48.3959 150.837 49.4105 150.837 50.8149C150.837 52.2193 151.912 53.234 153.371 53.234C154.036 53.234 154.721 53.0324 155.212 52.6359V50.7612H154.385V52.226Z" fill="white"></path><path d="M157.654 49.5382C157.076 49.5382 156.518 49.686 156.135 49.9817L156.465 50.5932C156.734 50.3714 157.15 50.237 157.553 50.237C158.151 50.237 158.447 50.526 158.447 51.0165V51.0703H157.52C156.431 51.0703 156.028 51.5406 156.028 52.1387C156.028 52.7636 156.545 53.2138 157.365 53.2138C157.903 53.2138 158.292 53.0391 158.494 52.73V53.1668H159.287V51.0635C159.287 50.0287 158.689 49.5382 157.654 49.5382ZM157.54 52.6023C157.11 52.6023 156.854 52.4075 156.854 52.1051C156.854 51.843 157.009 51.628 157.58 51.628H158.447V52.0446C158.306 52.4142 157.95 52.6023 157.54 52.6023Z" fill="white"></path><path d="M161.165 50.1026V49.5785H160.365V53.1668H161.205V51.4264C161.205 50.694 161.608 50.3177 162.246 50.3177C162.307 50.3177 162.367 50.3244 162.441 50.3378V49.5382C161.843 49.5382 161.406 49.7263 161.165 50.1026Z" fill="white"></path><path d="M164.505 49.5382C163.927 49.5382 163.369 49.686 162.986 49.9817L163.316 50.5932C163.584 50.3714 164.001 50.237 164.404 50.237C165.002 50.237 165.298 50.526 165.298 51.0165V51.0703H164.371C163.282 51.0703 162.879 51.5406 162.879 52.1387C162.879 52.7636 163.396 53.2138 164.216 53.2138C164.754 53.2138 165.143 53.0391 165.345 52.73V53.1668H166.138V51.0635C166.138 50.0287 165.54 49.5382 164.505 49.5382ZM164.391 52.6023C163.961 52.6023 163.705 52.4075 163.705 52.1051C163.705 51.843 163.86 51.628 164.431 51.628H165.298V52.0446C165.157 52.4142 164.801 52.6023 164.391 52.6023Z" fill="white"></path><path d="M169.252 49.5382C168.728 49.5382 168.291 49.7129 168.015 50.0422V49.5785H167.216V53.1668H168.056V51.3525C168.056 50.6335 168.459 50.2706 169.057 50.2706C169.595 50.2706 169.91 50.5797 169.91 51.2181V53.1668H170.75V51.1106C170.75 50.0287 170.112 49.5382 169.252 49.5382Z" fill="white"></path><path d="M173.738 52.3739C173.61 52.4747 173.442 52.5217 173.267 52.5217C172.945 52.5217 172.77 52.3335 172.77 51.9841V50.2773H173.731V49.6054H172.77V48.7856H171.93V49.6054H171.339V50.2773H171.93V52.0043C171.93 52.7972 172.38 53.2138 173.166 53.2138C173.469 53.2138 173.771 53.1332 173.973 52.9719L173.738 52.3739Z" fill="white"></path><path d="M175.087 48.9872C175.403 48.9872 175.625 48.7587 175.625 48.4631C175.625 48.1876 175.396 47.9792 175.087 47.9792C174.778 47.9792 174.55 48.201 174.55 48.4832C174.55 48.7654 174.778 48.9872 175.087 48.9872ZM174.664 53.1668H175.504V49.5785H174.664V53.1668Z" fill="white"></path><path d="M179.281 48.1808V50.022C178.998 49.6927 178.588 49.5382 178.125 49.5382C177.083 49.5382 176.31 50.2572 176.31 51.3726C176.31 52.4881 177.083 53.2138 178.125 53.2138C178.615 53.2138 179.032 53.0458 179.314 52.7031V53.1668H180.12V48.1808H179.281ZM178.226 52.4948C177.621 52.4948 177.157 52.058 177.157 51.3726C177.157 50.6872 177.621 50.2505 178.226 50.2505C178.83 50.2505 179.294 50.6872 179.294 51.3726C179.294 52.058 178.83 52.4948 178.226 52.4948Z" fill="white"></path><path d="M182.59 49.5382C182.012 49.5382 181.454 49.686 181.071 49.9817L181.401 50.5932C181.67 50.3714 182.086 50.237 182.489 50.237C183.087 50.237 183.383 50.526 183.383 51.0165V51.0703H182.456C181.367 51.0703 180.964 51.5406 180.964 52.1387C180.964 52.7636 181.481 53.2138 182.301 53.2138C182.839 53.2138 183.228 53.0391 183.43 52.73V53.1668H184.223V51.0635C184.223 50.0287 183.625 49.5382 182.59 49.5382ZM182.476 52.6023C182.046 52.6023 181.79 52.4075 181.79 52.1051C181.79 51.843 181.945 51.628 182.516 51.628H183.383V52.0446C183.242 52.4142 182.886 52.6023 182.476 52.6023Z" fill="white"></path><path d="M223.942 42.0881H222.007V46.7918H222.88V45.4344H223.942C225.178 45.4344 225.944 44.7961 225.944 43.7612C225.944 42.7197 225.178 42.0881 223.942 42.0881ZM223.902 44.6953H222.88V42.8272H223.902C224.668 42.8272 225.064 43.1699 225.064 43.7612C225.064 44.3526 224.668 44.6953 223.902 44.6953Z" fill="white"></path><path d="M227.503 43.7276V43.2035H226.703V46.7918H227.543V45.0514C227.543 44.319 227.946 43.9427 228.585 43.9427C228.645 43.9427 228.706 43.9494 228.78 43.9628V43.1632C228.181 43.1632 227.745 43.3513 227.503 43.7276Z" fill="white"></path><path d="M229.915 42.6122C230.231 42.6122 230.453 42.3837 230.453 42.0881C230.453 41.8126 230.224 41.6042 229.915 41.6042C229.606 41.6042 229.378 41.826 229.378 42.1082C229.378 42.3904 229.606 42.6122 229.915 42.6122ZM229.492 46.7918H230.332V43.2035H229.492V46.7918Z" fill="white"></path><path d="M233.988 43.2035L232.839 45.8645L231.723 43.2035H230.85L232.389 46.7918H233.255L234.794 43.2035H233.988Z" fill="white"></path><path d="M236.578 43.1632C236.001 43.1632 235.443 43.311 235.06 43.6067L235.389 44.2182C235.658 43.9964 236.074 43.862 236.478 43.862C237.076 43.862 237.371 44.151 237.371 44.6415V44.6953H236.444C235.355 44.6953 234.952 45.1656 234.952 45.7637C234.952 46.3886 235.47 46.8388 236.29 46.8388C236.827 46.8388 237.217 46.6641 237.418 46.355V46.7918H238.211V44.6885C238.211 43.6537 237.613 43.1632 236.578 43.1632ZM236.464 46.2273C236.034 46.2273 235.779 46.0325 235.779 45.7301C235.779 45.468 235.933 45.253 236.505 45.253H237.371V45.6696C237.23 46.0392 236.874 46.2273 236.464 46.2273Z" fill="white"></path><path d="M240.968 46.8388C241.667 46.8388 242.225 46.5364 242.5 45.9989L241.855 45.6226C241.64 45.9653 241.318 46.1198 240.962 46.1198C240.343 46.1198 239.873 45.6965 239.873 44.9976C239.873 44.3055 240.343 43.8755 240.962 43.8755C241.318 43.8755 241.64 44.03 241.855 44.3727L242.5 43.9964C242.225 43.4521 241.667 43.1632 240.968 43.1632C239.833 43.1632 239.026 43.9225 239.026 44.9976C239.026 46.0728 239.833 46.8388 240.968 46.8388Z" fill="white"></path><path d="M243.65 42.6122C243.966 42.6122 244.187 42.3837 244.187 42.0881C244.187 41.8126 243.959 41.6042 243.65 41.6042C243.341 41.6042 243.112 41.826 243.112 42.1082C243.112 42.3904 243.341 42.6122 243.65 42.6122ZM243.227 46.7918H244.066V43.2035H243.227V46.7918Z" fill="white"></path><path d="M247.843 41.8058V43.647C247.561 43.3177 247.151 43.1632 246.688 43.1632C245.646 43.1632 244.873 43.8822 244.873 44.9976C244.873 46.1131 245.646 46.8388 246.688 46.8388C247.178 46.8388 247.595 46.6708 247.877 46.3281V46.7918H248.683V41.8058H247.843ZM246.788 46.1198C246.184 46.1198 245.72 45.683 245.72 44.9976C245.72 44.3122 246.184 43.8755 246.788 43.8755C247.393 43.8755 247.857 44.3122 247.857 44.9976C247.857 45.683 247.393 46.1198 246.788 46.1198Z" fill="white"></path><path d="M251.153 43.1632C250.575 43.1632 250.017 43.311 249.634 43.6067L249.964 44.2182C250.232 43.9964 250.649 43.862 251.052 43.862C251.65 43.862 251.946 44.151 251.946 44.6415V44.6953H251.018C249.93 44.6953 249.527 45.1656 249.527 45.7637C249.527 46.3886 250.044 46.8388 250.864 46.8388C251.402 46.8388 251.791 46.6641 251.993 46.355V46.7918H252.786V44.6885C252.786 43.6537 252.188 43.1632 251.153 43.1632ZM251.039 46.2273C250.609 46.2273 250.353 46.0325 250.353 45.7301C250.353 45.468 250.508 45.253 251.079 45.253H251.946V45.6696C251.805 46.0392 251.449 46.2273 251.039 46.2273Z" fill="white"></path><path d="M256.571 41.8058V43.647C256.289 43.3177 255.879 43.1632 255.415 43.1632C254.374 43.1632 253.601 43.8822 253.601 44.9976C253.601 46.1131 254.374 46.8388 255.415 46.8388C255.906 46.8388 256.322 46.6708 256.605 46.3281V46.7918H257.411V41.8058H256.571ZM255.516 46.1198C254.911 46.1198 254.448 45.683 254.448 44.9976C254.448 44.3122 254.911 43.8755 255.516 43.8755C256.121 43.8755 256.584 44.3122 256.584 44.9976C256.584 45.683 256.121 46.1198 255.516 46.1198Z" fill="white"></path><path d="M261.883 45.0178C261.883 43.8956 261.117 43.1632 260.069 43.1632C259 43.1632 258.214 43.9292 258.214 44.9976C258.214 46.0661 258.993 46.8388 260.196 46.8388C260.815 46.8388 261.318 46.6372 261.641 46.2542L261.191 45.7368C260.935 45.9989 260.62 46.1265 260.216 46.1265C259.592 46.1265 259.155 45.7906 259.054 45.2664H261.869C261.876 45.1858 261.883 45.085 261.883 45.0178ZM260.069 43.8352C260.62 43.8352 261.016 44.1913 261.083 44.7087H259.047C259.128 44.1846 259.524 43.8352 260.069 43.8352Z" fill="white"></path><path d="M223.942 48.4631H222.007V53.1668H222.88V51.8094H223.942C225.178 51.8094 225.944 51.1711 225.944 50.1362C225.944 49.0947 225.178 48.4631 223.942 48.4631ZM223.902 51.0703H222.88V49.2022H223.902C224.668 49.2022 225.064 49.5449 225.064 50.1362C225.064 50.7276 224.668 51.0703 223.902 51.0703Z" fill="white"></path><path d="M227.503 50.1026V49.5785H226.703V53.1668H227.543V51.4264C227.543 50.694 227.946 50.3177 228.585 50.3177C228.645 50.3177 228.706 50.3244 228.78 50.3378V49.5382C228.181 49.5382 227.745 49.7263 227.503 50.1026Z" fill="white"></path><path d="M231.072 53.2138C232.187 53.2138 232.987 52.4478 232.987 51.3726C232.987 50.2975 232.187 49.5382 231.072 49.5382C229.97 49.5382 229.164 50.2975 229.164 51.3726C229.164 52.4478 229.97 53.2138 231.072 53.2138ZM231.072 52.4948C230.467 52.4948 230.01 52.058 230.01 51.3726C230.01 50.6872 230.467 50.2505 231.072 50.2505C231.683 50.2505 232.14 50.6872 232.14 51.3726C232.14 52.058 231.683 52.4948 231.072 52.4948Z" fill="white"></path><path d="M235.712 52.3739C235.584 52.4747 235.416 52.5217 235.242 52.5217C234.919 52.5217 234.744 52.3335 234.744 51.9841V50.2773H235.705V49.6054H234.744V48.7856H233.904V49.6054H233.313V50.2773H233.904V52.0043C233.904 52.7972 234.355 53.2138 235.141 53.2138C235.443 53.2138 235.746 53.1332 235.947 52.9719L235.712 52.3739Z" fill="white"></path><path d="M239.893 51.3928C239.893 50.2706 239.127 49.5382 238.079 49.5382C237.011 49.5382 236.224 50.3042 236.224 51.3726C236.224 52.4411 237.004 53.2138 238.207 53.2138C238.825 53.2138 239.329 53.0122 239.651 52.6292L239.201 52.1118C238.946 52.3739 238.63 52.5015 238.227 52.5015C237.602 52.5015 237.165 52.1656 237.064 51.6414H239.88C239.887 51.5608 239.893 51.46 239.893 51.3928ZM238.079 50.2102C238.63 50.2102 239.026 50.5663 239.094 51.0837H237.058C237.138 50.5596 237.535 50.2102 238.079 50.2102Z" fill="white"></path><path d="M243.462 49.5785V50.0556C243.166 49.6995 242.723 49.5382 242.219 49.5382C241.191 49.5382 240.404 50.2236 240.404 51.2651C240.404 52.3067 241.191 53.0055 242.219 53.0055C242.703 53.0055 243.126 52.851 243.422 52.5284V52.7166C243.422 53.4423 243.072 53.8051 242.279 53.8051C241.782 53.8051 241.271 53.6371 240.955 53.3751L240.579 54.0067C240.989 54.3427 241.654 54.5174 242.326 54.5174C243.583 54.5174 244.262 53.9261 244.262 52.6225V49.5785H243.462ZM242.346 52.2932C241.708 52.2932 241.251 51.8766 241.251 51.2651C241.251 50.6604 241.708 50.2505 242.346 50.2505C242.978 50.2505 243.435 50.6604 243.435 51.2651C243.435 51.8766 242.978 52.2932 242.346 52.2932Z" fill="white"></path><path d="M245.789 48.9872C246.105 48.9872 246.327 48.7587 246.327 48.4631C246.327 48.1876 246.098 47.9792 245.789 47.9792C245.48 47.9792 245.252 48.201 245.252 48.4832C245.252 48.7654 245.48 48.9872 245.789 48.9872ZM245.366 53.1668H246.206V49.5785H245.366V53.1668Z" fill="white"></path><path d="M249.983 48.1808V50.022C249.7 49.6927 249.29 49.5382 248.827 49.5382C247.785 49.5382 247.013 50.2572 247.013 51.3726C247.013 52.4881 247.785 53.2138 248.827 53.2138C249.317 53.2138 249.734 53.0458 250.016 52.7031V53.1668H250.823V48.1808H249.983ZM248.928 52.4948C248.323 52.4948 247.859 52.058 247.859 51.3726C247.859 50.6872 248.323 50.2505 248.928 50.2505C249.532 50.2505 249.996 50.6872 249.996 51.3726C249.996 52.058 249.532 52.4948 248.928 52.4948Z" fill="white"></path><path d="M253.292 49.5382C252.714 49.5382 252.157 49.686 251.774 49.9817L252.103 50.5932C252.372 50.3714 252.788 50.237 253.191 50.237C253.789 50.237 254.085 50.526 254.085 51.0165V51.0703H253.158C252.069 51.0703 251.666 51.5406 251.666 52.1387C251.666 52.7636 252.183 53.2138 253.003 53.2138C253.541 53.2138 253.93 53.0391 254.132 52.73V53.1668H254.925V51.0635C254.925 50.0287 254.327 49.5382 253.292 49.5382ZM253.178 52.6023C252.748 52.6023 252.493 52.4075 252.493 52.1051C252.493 51.843 252.647 51.628 253.218 51.628H254.085V52.0446C253.944 52.4142 253.588 52.6023 253.178 52.6023Z" fill="white"></path><path d="M69.2098 39L62 41.4033V48.6131C62 52.5954 65.2275 55.8229 69.2098 55.8229C73.1921 55.8229 76.4196 52.5954 76.4196 48.6131V41.4033L69.2098 39ZM75.0678 48.6131C75.0678 51.8481 72.4449 54.4711 69.2098 54.4711C65.9748 54.4711 63.3518 51.8481 63.3518 48.6131V42.4172L69.2098 40.3518L75.0678 42.4172V48.6131Z" fill="white"></path><path d="M66.7014 46.7185C66.6388 46.6555 66.5643 46.6056 66.4823 46.5715C66.4003 46.5374 66.3124 46.5199 66.2236 46.5199C66.1348 46.5199 66.0469 46.5374 65.9649 46.5715C65.8829 46.6056 65.8084 46.6555 65.7457 46.7185C65.6828 46.7811 65.6329 46.8556 65.5988 46.9376C65.5647 47.0196 65.5472 47.1075 65.5472 47.1963C65.5472 47.2851 65.5647 47.373 65.5988 47.455C65.6329 47.537 65.6828 47.6115 65.7457 47.6741L68.1753 50.1037L68.2147 50.1431C68.274 50.2025 68.3444 50.2496 68.4219 50.2817C68.4993 50.3139 68.5824 50.3304 68.6663 50.3304C68.7502 50.3304 68.8332 50.3139 68.9107 50.2817C68.9882 50.2496 69.0586 50.2025 69.1178 50.1431L73.3142 45.9468C73.3736 45.8875 73.4207 45.8172 73.4528 45.7397C73.4849 45.6622 73.5015 45.5791 73.5015 45.4952C73.5015 45.4114 73.4849 45.3283 73.4528 45.2508C73.4207 45.1733 73.3736 45.103 73.3142 45.0437L73.2616 44.9911C73.2024 44.9318 73.132 44.8846 73.0545 44.8525C72.977 44.8204 72.8939 44.8038 72.8101 44.8038C72.7262 44.8038 72.6431 44.8204 72.5656 44.8525C72.4881 44.8846 72.4178 44.9318 72.3585 44.9911L68.6653 48.6824L66.7014 46.7185Z" fill="white"></path><path fill-rule="evenodd" clip-rule="evenodd" d="M130.585 46.3971C129.636 46.2609 128.768 45.7871 128.14 45.0627C127.512 44.3382 127.167 43.4117 127.167 42.4531V41.9219C127.167 40.8955 128 40.0625 129.026 40.0625H130.467C130.709 39.4409 131.313 39 132.02 39H139.313C139.649 39.0002 139.977 39.1017 140.254 39.2913C140.531 39.4808 140.745 39.7496 140.867 40.0625H142.307C143.334 40.0625 144.167 40.8955 144.167 41.9219V42.4531C144.167 43.4117 143.821 44.3382 143.193 45.0627C142.566 45.7871 141.698 46.2609 140.749 46.3971C140.524 47.1281 140.145 47.8022 139.637 48.3737C139.129 48.9451 138.504 49.4005 137.804 49.7089L137.957 51.2453C137.963 51.2984 137.989 51.3728 138.079 51.4621C138.17 51.5545 138.309 51.6427 138.475 51.7032C138.776 51.8127 139.132 51.9944 139.421 52.3068C139.723 52.6361 139.917 53.0749 139.917 53.6094V54.4062H141.245C141.456 54.4062 141.659 54.4902 141.808 54.6396C141.958 54.7891 142.042 54.9918 142.042 55.2031C142.042 55.4145 141.958 55.6172 141.808 55.7666C141.659 55.916 141.456 56 141.245 56H130.089C129.877 56 129.675 55.916 129.525 55.7666C129.376 55.6172 129.292 55.4145 129.292 55.2031C129.292 54.9918 129.376 54.7891 129.525 54.6396C129.675 54.4902 129.877 54.4062 130.089 54.4062H131.417V53.6094C131.417 53.0749 131.61 52.6361 131.914 52.3068C132.201 51.9944 132.558 51.8127 132.859 51.7032C133.006 51.6521 133.142 51.5699 133.255 51.4621C133.344 51.3717 133.371 51.2995 133.376 51.2453L133.529 49.7089C132.83 49.4004 132.205 48.945 131.697 48.3735C131.189 47.8021 130.81 47.128 130.586 46.3971H130.585ZM130.354 41.6562H129.026C128.956 41.6562 128.888 41.6842 128.838 41.734C128.788 41.7839 128.76 41.8514 128.76 41.9219V42.4531C128.76 43.4944 129.426 44.3794 130.354 44.7078V41.6562ZM135.09 50.1244L134.962 51.4036C134.863 52.3864 134.051 52.9655 133.404 53.2003C133.284 53.2373 133.175 53.3013 133.085 53.3873C133.046 53.4298 133.01 53.4861 133.01 53.6104V54.4073H138.323V53.6104C138.323 53.4861 138.288 53.4298 138.249 53.3873C138.158 53.3013 138.049 53.2373 137.93 53.2003C137.283 52.9655 136.47 52.3864 136.372 51.4047L136.245 50.1254C135.861 50.167 135.474 50.167 135.09 50.1254V50.1244ZM140.979 44.7088V41.6562H142.307C142.378 41.6562 142.445 41.6842 142.495 41.734C142.545 41.7839 142.573 41.8514 142.573 41.9219V42.4531C142.573 42.9476 142.42 43.43 142.135 43.8338C141.849 44.2376 141.445 44.5429 140.979 44.7078V44.7088ZM131.948 40.666C131.948 40.6267 131.98 40.5938 132.02 40.5938H139.313C139.353 40.5938 139.385 40.6256 139.385 40.666V44.8438C139.385 45.83 138.994 46.7759 138.296 47.4733C137.599 48.1707 136.653 48.5625 135.667 48.5625C134.68 48.5625 133.735 48.1707 133.037 47.4733C132.34 46.7759 131.948 45.83 131.948 44.8438V40.666Z" fill="white"></path><path d="M135.667 41.5499L136.239 43.3119L138.092 43.3119L136.593 44.4009L137.166 46.1629L135.667 45.0739L134.168 46.1629L134.74 44.4009L133.242 43.3119L135.094 43.3119L135.667 41.5499Z" fill="white"></path><path d="M297.304 20.5393V13.8741C297.304 13.5825 297.362 13.2937 297.473 13.0244C297.585 12.755 297.748 12.5102 297.955 12.304C298.161 12.0979 298.406 11.9344 298.675 11.8229C298.945 11.7113 299.233 11.654 299.525 11.6541H301.491C302.078 11.6553 302.641 11.8894 303.056 12.3051C303.47 12.7208 303.703 13.2842 303.703 13.8714V15.2901C303.703 15.879 303.469 16.4439 303.053 16.8603C302.637 17.2768 302.072 17.5107 301.483 17.5107H298.703" stroke="white" stroke-width="0.484754" stroke-linecap="round" stroke-linejoin="round"></path><path d="M304.255 11.6528H305.107C305.349 11.6528 305.581 11.7489 305.752 11.9198C305.923 12.0907 306.019 12.3226 306.019 12.5643V17.5443" stroke="white" stroke-width="0.484754" stroke-linecap="round" stroke-linejoin="round"></path><path d="M305.834 10.8815L305.448 10.4942C305.425 10.4714 305.407 10.4443 305.394 10.4144C305.382 10.3846 305.376 10.3526 305.376 10.3203C305.376 10.2879 305.382 10.2559 305.394 10.2261C305.407 10.1962 305.425 10.1691 305.448 10.1463L305.834 9.75969C305.857 9.73681 305.884 9.71865 305.914 9.70626C305.944 9.69388 305.976 9.6875 306.008 9.6875C306.041 9.6875 306.073 9.69388 306.103 9.70626C306.132 9.71865 306.16 9.73681 306.182 9.75969L306.57 10.1463C306.592 10.1691 306.611 10.1962 306.623 10.2261C306.635 10.2559 306.642 10.2879 306.642 10.3203C306.642 10.3526 306.635 10.3846 306.623 10.4144C306.611 10.4443 306.592 10.4714 306.57 10.4942L306.182 10.8815C306.16 10.9044 306.132 10.9225 306.103 10.9349C306.073 10.9473 306.041 10.9537 306.008 10.9537C305.976 10.9537 305.944 10.9473 305.914 10.9349C305.884 10.9225 305.857 10.9044 305.834 10.8815Z" fill="white"></path><path d="M307.658 11.6488H308.505C308.94 11.6489 309.358 11.8219 309.666 12.1298L311.646 14.1093C311.707 14.1704 311.779 14.2189 311.859 14.252C311.938 14.2851 312.024 14.3021 312.11 14.3021C312.196 14.3021 312.282 14.2851 312.361 14.252C312.441 14.2189 312.513 14.1704 312.574 14.1093L314.549 12.137C314.702 11.9845 314.883 11.8635 315.082 11.781C315.281 11.6984 315.495 11.656 315.71 11.656H316.398" stroke="white" stroke-width="0.484754" stroke-linecap="round" stroke-linejoin="round"></path><path d="M307.658 17.4996H308.505C308.94 17.4995 309.358 17.3265 309.666 17.0186L311.646 15.0398C311.707 14.9786 311.779 14.9301 311.859 14.8971C311.938 14.864 312.024 14.8469 312.11 14.8469C312.196 14.8469 312.282 14.864 312.361 14.8971C312.441 14.9301 312.513 14.9786 312.574 15.0398L314.549 17.0114C314.702 17.1639 314.883 17.2849 315.082 17.3674C315.281 17.45 315.495 17.4924 315.71 17.4924H316.398" stroke="white" stroke-width="0.484754" stroke-linecap="round" stroke-linejoin="round"></path><path d="M292.257 18.7643C292.048 18.765 291.841 18.7241 291.648 18.6441C291.455 18.5642 291.28 18.4467 291.132 18.2984L289.508 16.678C289.451 16.6229 289.374 16.5922 289.295 16.5922C289.215 16.5922 289.139 16.6229 289.081 16.678L287.451 18.3076C287.304 18.4558 287.128 18.5733 286.935 18.6533C286.742 18.7333 286.535 18.7741 286.326 18.7735H286.006L288.063 20.831C288.372 21.1394 288.79 21.3126 289.226 21.3126C289.663 21.3126 290.081 21.1394 290.39 20.831L292.453 18.7676L292.257 18.7643Z" fill="white"></path><path d="M286.326 13.019C286.535 13.0185 286.742 13.0594 286.935 13.1394C287.128 13.2193 287.304 13.3368 287.451 13.4849L289.081 15.1152C289.138 15.1716 289.215 15.2033 289.295 15.2033C289.375 15.2033 289.451 15.1716 289.508 15.1152L291.132 13.4908C291.28 13.3427 291.455 13.2252 291.648 13.1453C291.841 13.0653 292.048 13.0244 292.257 13.0249H292.454L290.391 10.9621C290.238 10.8093 290.057 10.688 289.858 10.6053C289.658 10.5226 289.444 10.48 289.228 10.48C289.012 10.48 288.798 10.5226 288.598 10.6053C288.399 10.688 288.217 10.8093 288.064 10.9621L286.008 13.019H286.326Z" fill="white"></path><path d="M294.16 14.7312L292.915 13.4863C292.886 13.4975 292.856 13.5035 292.826 13.5039H292.259C291.964 13.5052 291.682 13.6229 291.473 13.8316L289.846 15.4527C289.774 15.5251 289.688 15.5825 289.593 15.6217C289.499 15.6608 289.397 15.6809 289.295 15.6807C289.088 15.6811 288.89 15.5993 288.743 15.4533L287.113 13.8231C286.904 13.6144 286.622 13.4967 286.327 13.4954H285.63C285.601 13.4949 285.573 13.4891 285.546 13.4784L284.295 14.7299C284.142 14.8827 284.021 15.064 283.938 15.2637C283.855 15.4633 283.812 15.6773 283.812 15.8933C283.812 16.1094 283.855 16.3234 283.938 16.523C284.021 16.7227 284.142 16.904 284.295 17.0568L285.546 18.3083C285.573 18.2976 285.601 18.2918 285.63 18.2913H286.327C286.622 18.2898 286.904 18.1721 287.113 17.9636L288.743 16.3334C288.892 16.1916 289.089 16.1125 289.295 16.1125C289.5 16.1125 289.697 16.1916 289.846 16.3334L291.47 17.9577C291.679 18.1662 291.962 18.2839 292.257 18.2854H292.823C292.854 18.2857 292.884 18.2919 292.912 18.3037L294.157 17.0587C294.465 16.7501 294.639 16.3316 294.639 15.8953C294.639 15.459 294.465 15.0405 294.157 14.7319" fill="white"></path><path d="M298.997 19.9725C298.894 19.9771 298.791 19.9927 298.691 20.019V20.4253C298.768 20.4521 298.848 20.4657 298.929 20.4652C299.133 20.4652 299.229 20.3964 299.229 20.2169C299.229 20.0485 299.15 19.9725 298.997 19.9725ZM298.623 20.7267V19.924H298.679L298.685 19.9587C298.789 19.9309 298.895 19.9138 299.003 19.9076C299.077 19.9025 299.151 19.9238 299.211 19.9679C299.244 19.9999 299.269 20.0389 299.285 20.082C299.301 20.1251 299.307 20.1712 299.303 20.2169C299.307 20.2679 299.296 20.319 299.273 20.3646C299.25 20.4102 299.215 20.4487 299.172 20.4757C299.098 20.5119 299.017 20.5299 298.935 20.5281C298.852 20.5276 298.77 20.5151 298.691 20.4908V20.7267H298.623Z" fill="white"></path><path d="M299.814 19.9706C299.61 19.9706 299.52 20.0361 299.52 20.2137C299.52 20.3913 299.609 20.4653 299.814 20.4653C300.018 20.4653 300.107 20.3998 300.107 20.2229C300.107 20.046 300.018 19.9706 299.814 19.9706ZM300.076 20.4653C299.997 20.5138 299.906 20.5367 299.814 20.5308C299.722 20.5364 299.63 20.5135 299.552 20.4653C299.515 20.4361 299.486 20.3983 299.468 20.3551C299.45 20.312 299.442 20.2649 299.447 20.2183C299.443 20.1716 299.45 20.1245 299.468 20.0813C299.487 20.0381 299.515 20.0001 299.552 19.9706C299.63 19.9221 299.722 19.8992 299.814 19.9051C299.906 19.8993 299.997 19.9222 300.076 19.9706C300.112 19.9998 300.141 20.0376 300.159 20.0806C300.178 20.1236 300.185 20.1704 300.181 20.217C300.185 20.2638 300.178 20.311 300.16 20.3544C300.141 20.3977 300.113 20.4359 300.076 20.4653Z" fill="white"></path><path d="M301.04 20.5117L300.813 20.0242H300.809L300.585 20.5117H300.527L300.284 19.922H300.36L300.561 20.4154H300.566L300.785 19.922H300.85L301.075 20.4154H301.08L301.276 19.922H301.35L301.108 20.5117H301.04Z" fill="white"></path><path d="M301.783 19.9694C301.594 19.9694 301.531 20.0532 301.521 20.1745H302.049C302.044 20.0401 301.975 19.9694 301.787 19.9694H301.783ZM301.787 20.5283C301.7 20.5375 301.613 20.5142 301.542 20.4628C301.509 20.4317 301.482 20.3935 301.465 20.3508C301.448 20.3082 301.441 20.2622 301.444 20.2164C301.442 20.1688 301.45 20.1213 301.469 20.0777C301.488 20.034 301.517 19.9953 301.554 19.9648C301.622 19.922 301.702 19.9014 301.783 19.9058C301.865 19.9007 301.947 19.9206 302.018 19.9628C302.103 20.0198 302.12 20.1201 302.12 20.2341H301.516C301.516 20.3547 301.558 20.4621 301.786 20.4621C301.888 20.4597 301.99 20.4483 302.09 20.4281V20.4896C301.988 20.5109 301.885 20.5232 301.781 20.5263" fill="white"></path><path d="M302.316 20.5119V19.9221H302.373L302.379 19.9569C302.473 19.9259 302.571 19.9087 302.67 19.9058H302.679V19.9713H302.662C302.568 19.9733 302.475 19.989 302.385 20.0178V20.5106L302.316 20.5119Z" fill="white"></path><path d="M303.078 19.9692C302.889 19.9692 302.825 20.0531 302.816 20.1743H303.344C303.339 20.04 303.27 19.9692 303.082 19.9692H303.078ZM303.082 20.5282C302.996 20.5372 302.909 20.5139 302.838 20.4626C302.805 20.4312 302.78 20.393 302.765 20.3507C302.749 20.3085 302.742 20.2632 302.746 20.2182C302.744 20.1707 302.752 20.1232 302.771 20.0795C302.79 20.0358 302.819 19.9972 302.856 19.9666C302.924 19.9238 303.004 19.9032 303.085 19.9076C303.167 19.9026 303.249 19.9225 303.32 19.9646C303.405 20.0216 303.421 20.1219 303.421 20.2359H302.818C302.818 20.3565 302.86 20.4639 303.088 20.4639C303.19 20.4615 303.292 20.4501 303.392 20.4299V20.4915C303.29 20.5127 303.187 20.525 303.082 20.5282Z" fill="white"></path><path d="M304.166 20.01C304.09 19.9833 304.01 19.97 303.929 19.9706C303.725 19.9706 303.628 20.0394 303.628 20.2183C303.628 20.3972 303.707 20.4627 303.861 20.4627C303.964 20.4579 304.066 20.4428 304.166 20.4175V20.01ZM304.179 20.5119L304.173 20.4765C304.069 20.5045 303.963 20.5218 303.855 20.5283C303.781 20.534 303.707 20.5123 303.647 20.4673C303.614 20.4355 303.588 20.3965 303.572 20.3534C303.556 20.3103 303.55 20.2641 303.555 20.2183C303.551 20.1675 303.561 20.1166 303.584 20.0712C303.607 20.0258 303.642 19.9876 303.686 19.9608C303.759 19.9237 303.841 19.9055 303.924 19.9077C304.006 19.9087 304.088 19.9213 304.167 19.9451V19.6758H304.236V20.5119H304.179Z" fill="white"></path><path d="M305.245 19.9726C305.141 19.9772 305.039 19.9928 304.939 20.0191V20.4241C305.015 20.4519 305.096 20.4659 305.177 20.4654C305.381 20.4654 305.477 20.3966 305.477 20.217C305.477 20.0486 305.398 19.9726 305.245 19.9726ZM305.42 20.4759C305.347 20.5121 305.266 20.5301 305.184 20.5283C305.095 20.5273 305.006 20.5123 304.922 20.4837V20.5119H304.874V19.6758H304.94V19.9543C305.042 19.9282 305.146 19.912 305.251 19.9058C305.326 19.9006 305.399 19.922 305.46 19.9661C305.492 19.9981 305.518 20.0371 305.534 20.0801C305.55 20.1232 305.556 20.1693 305.551 20.2151C305.555 20.2661 305.545 20.3172 305.522 20.3628C305.499 20.4084 305.464 20.4468 305.42 20.4739" fill="white"></path><path d="M305.638 20.7406V20.675C305.671 20.675 305.703 20.6809 305.725 20.6809C305.765 20.6842 305.805 20.674 305.838 20.6521C305.871 20.6301 305.896 20.5976 305.909 20.5597L305.931 20.5132L305.624 19.9235H305.703L305.965 20.4306H305.97L306.22 19.9235H306.298L305.971 20.5833C305.91 20.7032 305.845 20.7425 305.725 20.7425C305.696 20.7439 305.667 20.7432 305.638 20.7406Z" fill="white"></path><path d="M307.247 20.1763H307.018V20.3827H307.248C307.405 20.3827 307.465 20.365 307.465 20.2785C307.465 20.192 307.383 20.1763 307.247 20.1763ZM307.205 19.8421H307.018V20.0518H307.206C307.361 20.0518 307.423 20.0335 307.423 19.9457C307.423 19.8579 307.345 19.8421 307.205 19.8421ZM307.559 20.4561C307.475 20.5092 307.374 20.5118 307.189 20.5118H306.841V19.7144H307.18C307.34 19.7144 307.438 19.7144 307.519 19.7655C307.546 19.7816 307.568 19.805 307.583 19.8331C307.597 19.8611 307.603 19.8926 307.601 19.924C307.603 19.9634 307.592 20.0023 307.569 20.0344C307.546 20.0665 307.513 20.0899 307.475 20.101V20.1055C307.577 20.1285 307.644 20.1809 307.644 20.2943C307.646 20.3264 307.639 20.3587 307.624 20.3873C307.61 20.4159 307.587 20.4398 307.559 20.4561Z" fill="white"></path><path d="M308.34 20.2648C308.275 20.2589 308.202 20.2557 308.128 20.2557C308.009 20.2557 307.967 20.2799 307.967 20.3349C307.967 20.39 308.001 20.4136 308.093 20.4136C308.176 20.4107 308.259 20.399 308.34 20.3788V20.2648ZM308.375 20.5119L308.37 20.4765C308.266 20.506 308.159 20.5234 308.051 20.5282C307.989 20.5324 307.927 20.5173 307.874 20.485C307.852 20.4685 307.834 20.4469 307.823 20.4221C307.812 20.3973 307.806 20.3701 307.808 20.3428C307.807 20.3094 307.815 20.2763 307.833 20.2479C307.851 20.2194 307.876 20.197 307.907 20.1836C307.977 20.1572 308.053 20.146 308.128 20.1508C308.189 20.1508 308.272 20.1541 308.341 20.1587V20.1508C308.341 20.0591 308.28 20.0289 308.115 20.0289C308.049 20.0289 307.973 20.0322 307.898 20.0394V19.9202C307.981 19.9136 308.074 19.909 308.151 19.909C308.245 19.9007 308.34 19.9196 308.425 19.9634C308.49 20.0112 308.505 20.0774 308.505 20.1652V20.5132L308.375 20.5119Z" fill="white"></path><path d="M309.272 20.5118V20.1842C309.272 20.0774 309.217 20.0387 309.119 20.0387C309.038 20.0422 308.958 20.0547 308.879 20.0761V20.5092H308.717V19.9195H308.848L308.854 19.9562C308.957 19.9265 309.062 19.9087 309.168 19.9031C309.241 19.8975 309.313 19.919 309.37 19.9634C309.394 19.9873 309.412 20.0163 309.423 20.0481C309.435 20.0799 309.439 20.1139 309.436 20.1475V20.5072L309.272 20.5118Z" fill="white"></path><path d="M309.897 20.5282C309.819 20.5342 309.741 20.5122 309.678 20.4659C309.645 20.4343 309.619 20.3954 309.603 20.3522C309.587 20.3091 309.581 20.2628 309.585 20.2169C309.582 20.1683 309.591 20.1198 309.612 20.0758C309.633 20.0319 309.665 19.9941 309.705 19.966C309.784 19.9219 309.873 19.9016 309.963 19.9076C310.029 19.9076 310.097 19.9122 310.17 19.9188V20.0446C310.111 20.0394 310.039 20.0341 309.983 20.0341C309.827 20.0341 309.753 20.0833 309.753 20.2182C309.753 20.3532 309.809 20.3997 309.936 20.3997C310.019 20.3972 310.102 20.3871 310.183 20.3696V20.4908C310.089 20.5124 309.993 20.5249 309.897 20.5282Z" fill="white"></path><path d="M310.669 20.0309C310.513 20.0309 310.445 20.08 310.445 20.2137C310.445 20.3474 310.51 20.4044 310.669 20.4044C310.829 20.4044 310.892 20.3566 310.892 20.2229C310.892 20.0892 310.826 20.0309 310.669 20.0309ZM310.951 20.466C310.866 20.5144 310.767 20.5361 310.669 20.5282C310.571 20.5358 310.472 20.5142 310.386 20.466C310.348 20.4379 310.318 20.4002 310.298 20.3568C310.279 20.3134 310.271 20.2656 310.276 20.2183C310.271 20.1708 310.279 20.1228 310.298 20.0792C310.318 20.0356 310.348 19.9977 310.386 19.9693C310.473 19.9213 310.571 19.8999 310.669 19.9077C310.767 19.9002 310.865 19.9216 310.951 19.9693C310.989 19.9976 311.019 20.0353 311.039 20.0787C311.058 20.1221 311.065 20.1698 311.061 20.217C311.065 20.2644 311.058 20.3122 311.038 20.3558C311.019 20.3994 310.989 20.4373 310.951 20.466Z" fill="white"></path><path d="M312.008 20.5283C311.906 20.5348 311.805 20.5053 311.722 20.4451C311.626 20.3665 311.597 20.2439 311.597 20.1122C311.594 20.0467 311.607 19.9814 311.635 19.9223C311.663 19.8631 311.706 19.8119 311.759 19.7735C311.862 19.7165 311.979 19.6904 312.097 19.6981C312.185 19.6981 312.276 19.704 312.374 19.7119V19.8554C312.29 19.8482 312.185 19.8423 312.104 19.8423C311.876 19.8423 311.78 19.9288 311.78 20.1122C311.78 20.2957 311.869 20.3835 312.037 20.3835C312.157 20.3796 312.276 20.3636 312.392 20.3357V20.4785C312.266 20.508 312.138 20.5249 312.008 20.529" fill="white"></path><path d="M312.874 20.0126C312.738 20.0126 312.686 20.0611 312.678 20.1508H313.071C313.066 20.0552 313.011 20.0126 312.874 20.0126ZM312.85 20.5283C312.762 20.5362 312.674 20.513 312.601 20.4627C312.568 20.4316 312.542 20.3933 312.526 20.3507C312.509 20.3082 312.503 20.2624 312.507 20.217C312.504 20.17 312.513 20.123 312.532 20.0799C312.551 20.0368 312.58 19.9989 312.617 19.9693C312.694 19.9228 312.784 19.9013 312.874 19.9077C312.963 19.9022 313.052 19.9227 313.129 19.9667C313.224 20.0322 313.232 20.1358 313.233 20.257H312.674C312.678 20.3468 312.726 20.4044 312.891 20.4044C312.996 20.4021 313.101 20.392 313.204 20.3743V20.4896C313.087 20.5118 312.969 20.5247 312.85 20.5283Z" fill="white"></path><path d="M313.963 20.5118V20.1842C313.963 20.0774 313.908 20.0387 313.811 20.0387C313.73 20.0422 313.649 20.0547 313.571 20.0761V20.5092H313.406V19.9195H313.541L313.547 19.9562C313.649 19.9264 313.754 19.9086 313.861 19.9031C313.933 19.8975 314.005 19.919 314.062 19.9634C314.086 19.9873 314.105 20.0163 314.116 20.0481C314.127 20.0799 314.131 20.1139 314.128 20.1475V20.5072L313.963 20.5118Z" fill="white"></path><path d="M314.593 20.5282C314.557 20.5317 314.52 20.5259 314.487 20.5112C314.453 20.4965 314.424 20.4735 314.402 20.4444C314.37 20.3909 314.355 20.3286 314.359 20.2661V20.046H314.241V19.9241H314.359L314.377 19.7458H314.522V19.9241H314.754V20.046H314.522V20.2347C314.52 20.2728 314.526 20.3109 314.539 20.3467C314.549 20.3657 314.564 20.3812 314.583 20.3909C314.603 20.4007 314.624 20.4042 314.646 20.4011C314.685 20.4004 314.724 20.3965 314.763 20.3893V20.5073C314.707 20.5195 314.65 20.5265 314.593 20.5282Z" fill="white"></path><path d="M314.914 20.5119V19.9221H315.045L315.051 19.9588C315.145 19.9272 315.243 19.9093 315.342 19.9058H315.363V20.046C315.344 20.046 315.322 20.046 315.306 20.046C315.228 20.0463 315.151 20.0564 315.075 20.0761V20.5106L314.914 20.5119Z" fill="white"></path><path d="M315.963 20.2648C315.894 20.2589 315.824 20.2557 315.75 20.2557C315.63 20.2557 315.589 20.2799 315.589 20.3349C315.589 20.39 315.624 20.4136 315.716 20.4136C315.799 20.4106 315.882 20.3989 315.963 20.3789V20.2648ZM315.997 20.5119L315.991 20.4785C315.887 20.5079 315.78 20.5253 315.672 20.5302C315.609 20.5343 315.547 20.5192 315.494 20.487C315.472 20.4704 315.454 20.4488 315.443 20.424C315.432 20.3992 315.426 20.372 315.428 20.3448C315.426 20.3104 315.436 20.2764 315.454 20.2475C315.473 20.2186 315.5 20.1962 315.532 20.1836C315.602 20.1578 315.677 20.1471 315.752 20.1521C315.813 20.1521 315.897 20.1554 315.965 20.16V20.1508C315.965 20.0591 315.904 20.0289 315.739 20.0289C315.674 20.0289 315.597 20.0322 315.522 20.0394V19.9202C315.606 19.9136 315.699 19.909 315.775 19.909C315.87 19.9007 315.965 19.9196 316.049 19.9634C316.114 20.0113 316.129 20.0774 316.129 20.1652V20.5132L315.997 20.5119Z" fill="white"></path><path d="M316.338 19.6758H316.502V20.5119H316.338V19.6758Z" fill="white"></path><path fill-rule="evenodd" clip-rule="evenodd" d="M252.352 20.3542V16.4521H254.365C255.191 16.4521 255.887 16.1756 256.455 15.6302L256.591 15.4919C257.629 14.3628 257.561 12.6038 256.455 11.5591C255.902 11.0061 255.145 10.7065 254.365 10.7219H251.133V20.3542H252.352ZM252.352 15.2692V11.9048H254.396C254.835 11.9048 255.252 12.0738 255.562 12.381C256.221 13.0263 256.236 14.1016 255.6 14.7699C255.29 15.1002 254.851 15.2845 254.396 15.2692H252.352ZM262.277 14.2783C261.755 13.7943 261.043 13.5485 260.142 13.5485C258.984 13.5485 258.113 13.9787 257.538 14.8313L258.613 15.5149C259.007 14.9312 259.544 14.6393 260.226 14.6393C260.657 14.6393 261.074 14.8006 261.399 15.0925C261.717 15.369 261.899 15.7684 261.899 16.1909V16.4751C261.429 16.2139 260.839 16.0757 260.112 16.0757C259.264 16.0757 258.583 16.2754 258.075 16.6825C257.568 17.0896 257.311 17.6273 257.311 18.3109C257.296 18.9331 257.561 19.5246 258.03 19.924C258.507 20.3541 259.113 20.5692 259.824 20.5692C260.665 20.5692 261.331 20.1928 261.838 19.4401H261.891V20.3541H263.057V16.2908C263.057 15.4381 262.8 14.7622 262.277 14.2783ZM258.969 19.1406C258.719 18.9563 258.568 18.6567 258.568 18.3341C258.568 17.9731 258.734 17.6735 259.06 17.4354C259.393 17.1972 259.81 17.0743 260.302 17.0743C260.983 17.0667 261.513 17.2203 261.892 17.5275C261.892 18.0499 261.688 18.5031 261.286 18.8871C260.923 19.2558 260.43 19.4632 259.916 19.4632C259.575 19.4709 259.242 19.3557 258.969 19.1406ZM265.677 23.25L269.75 13.7636H268.425L266.54 18.4953H266.517L264.587 13.7636H263.262L265.934 19.9317L264.42 23.25H265.677Z" fill="white"></path><path d="M248.143 15.6071C248.143 15.2307 248.113 14.8543 248.052 14.4856H242.911V16.6133H245.857C245.736 17.2969 245.342 17.9114 244.766 18.2955V19.6781H246.523C247.553 18.718 248.143 17.2969 248.143 15.6071Z" fill="white"></path><path d="M242.912 21.0147C244.381 21.0147 245.622 20.5231 246.523 19.6781L244.767 18.2955C244.275 18.6335 243.646 18.8255 242.912 18.8255C241.488 18.8255 240.285 17.85 239.853 16.5442H238.043V17.9729C238.967 19.8394 240.852 21.0147 242.912 21.0147Z" fill="white"></path><path d="M239.853 16.5442C239.626 15.8606 239.626 15.1155 239.853 14.4242V13.0032H238.043C237.263 14.5625 237.263 16.406 238.043 17.9653L239.853 16.5442Z" fill="white"></path><path d="M242.912 12.1429C243.692 12.1275 244.441 12.4271 245.001 12.9724L246.561 11.3901C245.569 10.453 244.267 9.93834 242.912 9.9537C240.852 9.9537 238.967 11.1366 238.043 13.0032L239.853 14.4319C240.285 13.1184 241.488 12.1429 242.912 12.1429Z" fill="white"></path><path fill-rule="evenodd" clip-rule="evenodd" d="M198.788 19.6862H196.778C196.641 19.6862 196.524 19.7861 196.502 19.9218L195.69 25.0743C195.673 25.176 195.752 25.2677 195.855 25.2677H196.815C196.952 25.2677 197.069 25.1677 197.09 25.0318L197.31 23.6421C197.331 23.506 197.448 23.4062 197.585 23.4062H198.221C199.545 23.4062 200.309 22.7656 200.508 21.4964C200.598 20.9411 200.512 20.5048 200.252 20.1992C199.967 19.8637 199.46 19.6862 198.788 19.6862ZM199.019 21.5681C198.909 22.2891 198.359 22.2891 197.826 22.2891H197.523L197.735 20.9425C197.748 20.8612 197.819 20.8012 197.901 20.8012H198.04C198.403 20.8012 198.745 20.8012 198.922 21.008C199.027 21.1315 199.06 21.3148 199.019 21.5681ZM204.794 21.5449H203.832C203.75 21.5449 203.679 21.6049 203.666 21.6863L203.624 21.9554L203.556 21.8579C203.348 21.5555 202.884 21.4545 202.42 21.4545C201.357 21.4545 200.448 22.2599 200.272 23.3896C200.18 23.953 200.31 24.4919 200.63 24.8677C200.923 25.2132 201.343 25.3571 201.842 25.3571C202.699 25.3571 203.174 24.8062 203.174 24.8062L203.131 25.0737C203.115 25.1759 203.193 25.2675 203.296 25.2675H204.163C204.301 25.2675 204.417 25.1676 204.439 25.0316L204.959 21.7383C204.975 21.637 204.897 21.5449 204.794 21.5449ZM203.453 23.4177C203.36 23.9674 202.923 24.3365 202.367 24.3365C202.088 24.3365 201.864 24.2469 201.721 24.077C201.579 23.9084 201.525 23.6683 201.57 23.401C201.657 22.8559 202.1 22.4749 202.648 22.4749C202.921 22.4749 203.144 22.5656 203.29 22.737C203.436 22.91 203.495 23.1515 203.453 23.4177ZM208.952 21.5448H209.919C210.054 21.5448 210.133 21.6967 210.056 21.8078L206.84 26.4499C206.788 26.5251 206.702 26.5698 206.611 26.5698H205.645C205.509 26.5698 205.429 26.4167 205.508 26.3054L206.51 24.8919L205.445 21.7663C205.408 21.6577 205.488 21.5448 205.603 21.5448H206.554C206.677 21.5448 206.786 21.6258 206.822 21.744L207.387 23.6317L208.72 21.6673C208.773 21.5906 208.859 21.5448 208.952 21.5448Z" fill="white"></path><path fill-rule="evenodd" clip-rule="evenodd" d="M219.435 25.0744L220.26 19.8276C220.273 19.7461 220.343 19.6862 220.425 19.6859H221.354C221.456 19.6859 221.535 19.7778 221.519 19.8795L220.706 25.0318C220.684 25.1678 220.567 25.2677 220.43 25.2677H219.601C219.498 25.2677 219.419 25.1761 219.435 25.0744ZM213.12 19.6862H211.11C210.973 19.6862 210.856 19.7861 210.835 19.9218L210.022 25.0744C210.006 25.1761 210.085 25.2677 210.187 25.2677H211.218C211.314 25.2677 211.396 25.1978 211.411 25.1026L211.642 23.6421C211.663 23.506 211.78 23.4062 211.917 23.4062H212.553C213.877 23.4062 214.641 22.7657 214.84 21.4964C214.931 20.9411 214.844 20.5048 214.584 20.1992C214.299 19.8638 213.792 19.6862 213.12 19.6862ZM213.352 21.5681C213.242 22.2891 212.691 22.2891 212.158 22.2891H211.855L212.068 20.9425C212.081 20.8612 212.151 20.8012 212.233 20.8012H212.372C212.735 20.8012 213.078 20.8012 213.254 21.008C213.36 21.1315 213.392 21.3148 213.352 21.5681ZM219.126 21.545H218.164C218.082 21.545 218.011 21.6049 217.999 21.6864L217.957 21.9555L217.889 21.858C217.681 21.5556 217.216 21.4546 216.753 21.4546C215.689 21.4546 214.782 22.2599 214.605 23.3896C214.513 23.9531 214.643 24.4919 214.963 24.8677C215.257 25.2132 215.676 25.3572 216.175 25.3572C217.032 25.3572 217.507 24.8062 217.507 24.8062L217.464 25.0737C217.448 25.1759 217.526 25.2676 217.63 25.2676H218.496C218.633 25.2676 218.75 25.1676 218.772 25.0317L219.292 21.7383C219.308 21.637 219.229 21.545 219.126 21.545ZM217.785 23.4178C217.692 23.9675 217.256 24.3365 216.699 24.3365C216.42 24.3365 216.196 24.2469 216.053 24.0771C215.911 23.9085 215.857 23.6683 215.902 23.401C215.989 22.856 216.432 22.475 216.98 22.475C217.253 22.475 217.476 22.5657 217.622 22.737C217.769 22.9101 217.827 23.1515 217.785 23.4178Z" fill="white"></path><path d="M206.224 17.8429L206.471 16.2738L205.921 16.2611H203.293L205.119 4.68274C205.125 4.64778 205.143 4.61519 205.17 4.59205C205.197 4.56891 205.231 4.55615 205.267 4.55615H209.698C211.169 4.55615 212.184 4.86222 212.714 5.46633C212.962 5.74974 213.12 6.04589 213.197 6.3718C213.277 6.71378 213.279 7.12234 213.2 7.62065L213.194 7.65703V7.97631L213.443 8.11708C213.652 8.22807 213.818 8.35513 213.946 8.50061C214.159 8.74292 214.296 9.05088 214.354 9.41599C214.414 9.7915 214.394 10.2383 214.296 10.7442C214.183 11.3261 213.999 11.8329 213.752 12.2476C213.524 12.6298 213.234 12.9466 212.89 13.1923C212.561 13.4256 212.17 13.6028 211.729 13.7162C211.301 13.8275 210.813 13.8838 210.278 13.8838H209.933C209.686 13.8838 209.447 13.9726 209.259 14.1318C209.071 14.2943 208.946 14.5162 208.908 14.759L208.882 14.9003L208.445 17.6657L208.425 17.7673C208.42 17.7995 208.411 17.8155 208.398 17.8264C208.386 17.8362 208.369 17.8429 208.353 17.8429H206.224Z" fill="white"></path><path d="M213.678 7.69409C213.665 7.77864 213.65 7.86507 213.633 7.95387C213.048 10.9537 211.05 11.99 208.497 11.99H207.197C206.885 11.99 206.621 12.2167 206.573 12.5246L205.907 16.7455L205.719 17.9418C205.687 18.144 205.843 18.3263 206.047 18.3263H208.353C208.626 18.3263 208.857 18.128 208.9 17.8587L208.923 17.7415L209.357 14.9869L209.385 14.8358C209.428 14.5657 209.66 14.3673 209.933 14.3673H210.278C212.511 14.3673 214.26 13.4604 214.771 10.8361C214.985 9.73976 214.874 8.82439 214.309 8.18059C214.138 7.98646 213.926 7.82539 213.678 7.69409Z" fill="#CECECE"></path><path d="M213.067 7.45044C212.978 7.42445 212.885 7.40084 212.791 7.37958C212.696 7.35881 212.599 7.34039 212.499 7.32433C212.148 7.26764 211.764 7.24072 211.353 7.24072H207.88C207.795 7.24072 207.713 7.26008 207.641 7.29504C207.48 7.37202 207.362 7.52365 207.333 7.70927L206.594 12.3882L206.573 12.5247C206.621 12.2168 206.884 11.99 207.197 11.99H208.496C211.049 11.99 213.048 10.9533 213.633 7.95394C213.65 7.86514 213.665 7.77871 213.678 7.69417C213.53 7.61576 213.37 7.54869 213.198 7.49153C213.155 7.47736 213.111 7.46367 213.067 7.45044Z" fill="white"></path><path d="M207.333 7.70925C207.362 7.52362 207.481 7.372 207.641 7.29548C207.714 7.26052 207.795 7.24116 207.88 7.24116H211.353C211.764 7.24116 212.148 7.26808 212.499 7.32477C212.599 7.34082 212.696 7.35925 212.791 7.38002C212.886 7.40129 212.978 7.42491 213.067 7.45088C213.111 7.4641 213.155 7.4778 213.198 7.4915C213.371 7.54865 213.531 7.6162 213.678 7.69413C213.852 6.58556 213.677 5.83078 213.078 5.1473C212.417 4.39488 211.224 4.07275 209.698 4.07275H205.268C204.956 4.07275 204.69 4.29946 204.642 4.6079L202.796 16.3052C202.76 16.5367 202.939 16.7455 203.172 16.7455H205.907L206.594 12.3882L207.333 7.70925Z" fill="white"></path><path fill-rule="evenodd" clip-rule="evenodd" d="M112.927 22.1612C111.388 23.4894 109.392 24.2911 107.21 24.2911C102.342 24.2911 98.3959 20.2991 98.3959 15.3748C98.3959 10.4504 102.342 6.45837 107.21 6.45837C109.392 6.45837 111.388 7.2602 112.927 8.58843C114.466 7.26026 116.463 6.45848 118.644 6.45848C123.512 6.45848 127.458 10.4505 127.458 15.3749C127.458 20.2992 123.512 24.2912 118.644 24.2912C116.463 24.2912 114.466 23.4894 112.927 22.1612Z" fill="#A9A9A9"></path><path fill-rule="evenodd" clip-rule="evenodd" d="M112.927 22.1612C114.822 20.5258 116.024 18.0923 116.024 15.3749C116.024 12.6574 114.822 10.2239 112.927 8.58851C114.466 7.26031 116.463 6.4585 118.644 6.4585C123.512 6.4585 127.458 10.4505 127.458 15.3749C127.458 20.2993 123.512 24.2913 118.644 24.2913C116.463 24.2913 114.466 23.4895 112.927 22.1612Z" fill="#F4F4F4"></path><path fill-rule="evenodd" clip-rule="evenodd" d="M112.927 22.1612C114.822 20.5257 116.024 18.0922 116.024 15.3748C116.024 12.6574 114.822 10.2239 112.927 8.5885C111.032 10.2239 109.83 12.6574 109.83 15.3748C109.83 18.0922 111.032 20.5257 112.927 22.1612Z" fill="white"></path><path fill-rule="evenodd" clip-rule="evenodd" d="M147.105 10.9792L142.875 20.3397H147.939L148.566 18.8472H150.001L150.629 20.3397H156.203V19.2006L156.699 20.3397H159.583L160.079 19.1765V20.3397H171.671L173.08 18.886L174.4 20.3397L180.354 20.3517L176.111 15.6856L180.354 10.9792H174.493L173.12 12.4061L171.842 10.9792H159.232L158.149 13.3952L157.041 10.9792H151.988V12.0796L151.426 10.9792H147.105ZM164.415 12.3084H171.071L173.107 14.5076L175.209 12.3084H177.245L174.151 15.6842L177.245 19.0211H175.116L173.08 16.7964L170.968 19.0211H164.415V12.3084ZM166.058 14.9253V13.6992V13.698H170.212L172.024 15.6589L170.132 17.6305H166.058V16.2919H169.69V14.9253H166.058ZM148.085 12.3084H150.553L153.359 18.6557V12.3084H156.062L158.229 16.8594L160.227 12.3084H162.917V19.0251H161.28L161.267 13.7619L158.88 19.0251H157.416L155.016 13.7619V19.0251H151.648L151.009 17.5193H147.56L146.923 19.0238H145.118L148.085 12.3084ZM148.149 16.1272L149.285 13.4448L150.42 16.1272H148.149Z" fill="white"></path><path fill-rule="evenodd" clip-rule="evenodd" d="M60.6828 21.0004H57.9441L55.8903 13.1653C55.7928 12.8049 55.5859 12.4862 55.2814 12.3361C54.5216 11.9587 53.6844 11.6583 52.771 11.5068V11.2052H57.1829C57.7918 11.2052 58.2485 11.6583 58.3246 12.1846L59.3902 17.8363L62.1276 11.2052H64.7903L60.6828 21.0004ZM66.3126 21.0004H63.726L65.8559 11.2052H68.4424L66.3126 21.0004ZM71.7887 13.9187C71.8649 13.3912 72.3215 13.0895 72.8543 13.0895C73.6916 13.0138 74.6036 13.1652 75.3648 13.5413L75.8214 11.4324C75.0603 11.1307 74.223 10.9792 73.4632 10.9792C70.9528 10.9792 69.1261 12.336 69.1261 14.2191C69.1261 15.6516 70.42 16.4038 71.3334 16.8569C72.3215 17.3087 72.7021 17.6104 72.626 18.0622C72.626 18.7399 71.8649 19.0416 71.1051 19.0416C70.1917 19.0416 69.2783 18.8157 68.4424 18.4383L67.9857 20.5485C68.8991 20.9246 69.8872 21.0761 70.8006 21.0761C73.6155 21.1505 75.3648 19.7951 75.3648 17.7605C75.3648 15.1985 71.7887 15.0483 71.7887 13.9187ZM84.4169 21.0004L82.3632 11.2052H80.1572C79.7006 11.2052 79.2439 11.5068 79.0916 11.9587L75.2886 21.0004H77.9513L78.4827 19.5692H81.7543L82.0587 21.0004H84.4169ZM80.5378 13.8429L81.2976 17.5346H79.1677L80.5378 13.8429Z" fill="white"></path><g clip-path="url(#clip0_136_587)"><path d="M6.45831 6.45862H6.8172V15.9878H6.45831V6.45862ZM7.17609 6.45862H7.53498V15.9878H7.17609V6.45862ZM9.33102 6.45862H9.68991V15.9878H9.33102V6.45862ZM16.3168 6.45862H16.6756V15.9878H16.3168V6.45862ZM18.6522 6.45862H19.0111V15.9878H18.6522V6.45862ZM20.9168 6.45862H21.2757V15.9878H20.9168V6.45862ZM21.5004 6.45862H21.8593V15.9878H21.5009L21.5004 6.45862ZM22.0849 6.45862H22.4438V15.9878H22.0849V6.45862ZM22.7417 6.45862H23.1006V15.9878H22.7419L22.7417 6.45862ZM23.3984 6.45862H23.7573V15.9878H23.3984V6.45862ZM25.2242 6.45862H25.5831V15.9878H25.2237L25.2242 6.45862ZM29.7511 6.45862H30.1099V15.9878H29.7511V6.45862ZM34.473 6.45862H34.8318V15.9878H34.4729L34.473 6.45862ZM35.7646 6.45862H36.1234V15.9878H35.7646V6.45862ZM36.6983 6.45862H37.0572V15.9878H36.6983V6.45862ZM37.2728 6.45862H37.6317V15.9878H37.2728V6.45862ZM11.7011 6.45862H12.06V15.9878H11.7011V6.45862ZM8.10986 6.45862H8.75613V15.9878H8.10986V6.45862ZM12.3746 6.45862H13.0208V15.9878H12.3746V6.45862ZM15.3692 6.45862H16.0154V15.9878H15.3692V6.45862ZM16.9023 6.45862H17.5485V15.9878H16.9023V6.45862ZM19.3117 6.45862H19.9579V15.9878H19.3117V6.45862ZM26.1808 6.45862H27.1859V15.9878H26.1808V6.45862ZM27.4937 6.45862H28.2831V15.9878H27.4928L27.4937 6.45862ZM28.879 6.45862H29.5251V15.9878H28.879V6.45862ZM30.7108 6.45862H31.7882V15.9878H30.7108V6.45862ZM32.8206 6.45862H33.8981V15.9878H32.8206V6.45862ZM10.0492 6.45862H11.3415V15.9878H10.0492V6.45862ZM13.3987 6.45862H14.4037V15.9878H13.3987V6.45862Z" fill="white"></path><path d="M6.92316 24.4488V18.9946H8.96984C9.31186 18.9814 9.653 19.0376 9.97267 19.16C10.2177 19.2647 10.4242 19.4428 10.5639 19.6697C10.7023 19.8845 10.7766 20.1342 10.778 20.3897C10.7781 20.6227 10.7123 20.8509 10.5883 21.0482C10.4487 21.2654 10.2499 21.4383 10.0153 21.5464C10.3163 21.6238 10.5838 21.7974 10.7771 22.0409C10.9559 22.2786 11.0495 22.5695 11.0429 22.8669C11.0451 23.1138 10.9898 23.3577 10.8814 23.5795C10.7898 23.7784 10.6521 23.9526 10.4799 24.0877C10.3005 24.2164 10.0975 24.3082 9.88249 24.358C9.59418 24.4241 9.29888 24.4548 9.00314 24.4494L6.92316 24.4488ZM7.64561 21.2866H8.82511C9.05546 21.2956 9.286 21.2743 9.51082 21.2234C9.67537 21.1816 9.82127 21.0862 9.92536 20.9521C10.0223 20.8127 10.0712 20.6455 10.0648 20.4758C10.0681 20.3074 10.0229 20.1416 9.93458 19.9981C9.85028 19.862 9.71924 19.7612 9.56598 19.7147C9.29405 19.6522 9.01493 19.6265 8.73615 19.6384H7.64585L7.64561 21.2866ZM7.64561 23.8054H9.00338C9.16763 23.8097 9.33196 23.8011 9.49484 23.7796C9.64218 23.7556 9.78361 23.7039 9.91161 23.6271C10.0286 23.5515 10.1235 23.4464 10.1867 23.3224C10.2605 23.1815 10.2978 23.0243 10.2949 22.8652C10.3 22.6754 10.2454 22.4888 10.1388 22.3317C10.0335 22.181 9.88091 22.0697 9.70519 22.0156C9.44535 21.9453 9.17643 21.9145 8.90743 21.9242H7.64561V23.8054ZM12.0977 21.793C12.052 21.0157 12.3138 20.2517 12.8267 19.6659C13.0684 19.4121 13.3612 19.2124 13.6858 19.08C14.0103 18.9476 14.3593 18.8855 14.7096 18.8978C15.188 18.8913 15.659 19.0162 16.0712 19.259C16.4719 19.4959 16.7935 19.8461 16.9955 20.2655C17.2132 20.7223 17.322 21.2234 17.3132 21.7293C17.3224 22.2437 17.208 22.7527 16.9795 23.2136C16.7721 23.6331 16.441 23.9789 16.0309 24.2042C15.6255 24.4277 15.1695 24.5437 14.7065 24.541C14.2221 24.5489 13.7452 24.4203 13.3304 24.1699C12.9314 23.928 12.6117 23.5747 12.4108 23.1534C12.2036 22.7299 12.0965 22.2644 12.0977 21.793ZM12.8422 21.8044C12.8112 22.3719 13.0025 22.9292 13.3755 23.358C13.5438 23.5423 13.7497 23.6883 13.9792 23.7862C14.2087 23.8841 14.4566 23.9317 14.706 23.9257C14.957 23.932 15.2064 23.884 15.437 23.785C15.6677 23.686 15.8742 23.5382 16.0424 23.3519C16.4188 22.8968 16.6072 22.3152 16.569 21.7259C16.579 21.3269 16.5034 20.9304 16.3473 20.5631C16.2097 20.2463 15.9804 19.978 15.689 19.7927C15.3977 19.6097 15.0598 19.5148 14.7159 19.5192C14.4721 19.5155 14.2301 19.5601 14.0037 19.6505C13.7773 19.7409 13.5711 19.8752 13.3969 20.0457C13.1908 20.2862 13.0355 20.5659 12.9401 20.868C12.8448 21.1701 12.8115 21.4883 12.8422 21.8035V21.8044ZM18.4968 24.4492V18.9946H19.2184V23.8049H21.9043V24.4488L18.4968 24.4492ZM23.061 24.4492V18.9946H27.0049V19.6384H23.7826V21.3094H26.8V21.9494H23.7826V23.8055H27.1315V24.4494L23.061 24.4492ZM29.7984 24.4492V19.6384H28.0005V18.9946H32.3239V19.6384H30.5195V24.4488L29.7984 24.4492ZM32.9895 21.793C32.9443 21.0156 33.2068 20.2517 33.7203 19.6663C33.962 19.4124 34.2547 19.2127 34.5793 19.0803C34.9038 18.9479 35.2527 18.8858 35.603 18.8981C36.0814 18.8916 36.5524 19.0166 36.9646 19.2594C37.3654 19.4962 37.687 19.8464 37.8889 20.2659C38.1067 20.7226 38.2155 21.2237 38.2067 21.7297C38.2156 22.2441 38.1009 22.7531 37.8722 23.214C37.6641 23.6342 37.3319 23.9803 36.9205 24.2053C36.5151 24.4288 36.0591 24.5447 35.5962 24.5421C35.1114 24.55 34.6342 24.4212 34.2193 24.1703C33.821 23.928 33.5022 23.5748 33.3019 23.1538C33.0949 22.7301 32.988 22.2645 32.9895 21.793ZM33.7339 21.8044C33.7029 22.3719 33.8942 22.9292 34.2673 23.358C34.4355 23.5423 34.6414 23.6883 34.8709 23.7862C35.1004 23.8841 35.3483 23.9317 35.5978 23.9257C35.8494 23.9328 36.0997 23.8852 36.3312 23.7863C36.5627 23.6874 36.77 23.5394 36.9388 23.3526C37.3152 22.8975 37.5035 22.3159 37.4653 21.7266C37.4731 21.3271 37.3952 20.9306 37.2366 20.5638C37.099 20.2471 36.8697 19.9788 36.5783 19.7935C36.2873 19.6106 35.9496 19.5156 35.6059 19.52C35.3621 19.5163 35.1201 19.5609 34.8937 19.6512C34.6673 19.7416 34.461 19.8759 34.2868 20.0464C34.0811 20.287 33.9261 20.5666 33.8311 20.8685C33.7361 21.1704 33.7031 21.4884 33.7339 21.8034V21.8044Z" fill="white"></path></g><defs><clipPath id="clip0_136_587"><rect width="31.7488" height="18.0834" fill="white" transform="translate(6.45831 6.45862)"></rect></clipPath></defs></svg>