<svg xmlns="http://www.w3.org/2000/svg" width="209" height="18" viewBox="0 0 209 18" fill="none"><path d="M1.464 13H4.788C7.452 13 9.252 11.248 9.252 8.8C9.252 6.352 7.452 4.6 4.788 4.6H1.464V13ZM2.076 12.448V5.152H4.74C7.116 5.152 8.64 6.664 8.64 8.8C8.64 10.936 7.116 12.448 4.74 12.448H2.076ZM16.4901 9.844C16.4901 7.984 15.2181 6.688 13.5021 6.688C11.7861 6.688 10.5021 8.008 10.5021 9.868C10.5021 11.728 11.8341 13.048 13.7301 13.048C14.6781 13.048 15.5421 12.7 16.0941 12.028L15.7461 11.632C15.2661 12.22 14.5341 12.508 13.7421 12.508C12.2421 12.508 11.1501 11.5 11.0901 10.012H16.4781C16.4781 9.952 16.4901 9.892 16.4901 9.844ZM13.5021 7.216C14.8341 7.216 15.8181 8.188 15.9021 9.544H11.1021C11.1981 8.176 12.1701 7.216 13.5021 7.216ZM19.9302 13.048C21.5262 13.048 22.4022 12.352 22.4022 11.332C22.4022 8.944 18.2502 10.276 18.2502 8.392C18.2502 7.72 18.7902 7.216 20.0142 7.216C20.6862 7.216 21.3702 7.396 21.8982 7.78L22.1742 7.3C21.6822 6.928 20.8182 6.688 20.0262 6.688C18.4422 6.688 17.6502 7.456 17.6502 8.404C17.6502 10.864 21.8022 9.52 21.8022 11.344C21.8022 12.052 21.2742 12.52 19.9542 12.52C19.0302 12.52 18.1782 12.172 17.6982 11.764L17.4222 12.244C17.9142 12.7 18.8982 13.048 19.9302 13.048ZM29.3807 9.844C29.3807 7.984 28.1087 6.688 26.3927 6.688C24.6767 6.688 23.3927 8.008 23.3927 9.868C23.3927 11.728 24.7247 13.048 26.6207 13.048C27.5687 13.048 28.4327 12.7 28.9847 12.028L28.6367 11.632C28.1567 12.22 27.4247 12.508 26.6327 12.508C25.1327 12.508 24.0407 11.5 23.9807 10.012H29.3687C29.3687 9.952 29.3807 9.892 29.3807 9.844ZM26.3927 7.216C27.7247 7.216 28.7087 8.188 28.7927 9.544H23.9927C24.0887 8.176 25.0607 7.216 26.3927 7.216ZM34.2968 6.688C33.1088 6.688 32.2328 7.216 31.8128 8.092V6.736H31.2368V13H31.8368V9.664C31.8368 8.176 32.7368 7.228 34.2128 7.228C35.4848 7.228 36.2408 7.972 36.2408 9.388V13H36.8408V9.34C36.8408 7.588 35.8208 6.688 34.2968 6.688ZM43.6099 6.736L41.0899 12.34L38.5939 6.736H37.9579L40.7779 13H41.3899L44.2219 6.736H43.6099ZM47.8059 13.048C49.6059 13.048 50.9379 11.728 50.9379 9.868C50.9379 8.008 49.6059 6.688 47.8059 6.688C46.0059 6.688 44.6739 8.008 44.6739 9.868C44.6739 11.728 46.0059 13.048 47.8059 13.048ZM47.8059 12.508C46.3659 12.508 45.2859 11.44 45.2859 9.868C45.2859 8.296 46.3659 7.228 47.8059 7.228C49.2459 7.228 50.3259 8.296 50.3259 9.868C50.3259 11.44 49.2459 12.508 47.8059 12.508ZM52.7993 13H53.3993V4.096H52.7993V13ZM60.3443 6.736L57.8242 12.34L55.3283 6.736H54.6923L57.5123 13H58.1243L60.9563 6.736H60.3443ZM62.5681 5.212C62.8441 5.212 63.0601 4.996 63.0601 4.72C63.0601 4.456 62.8441 4.24 62.5681 4.24C62.2921 4.24 62.0761 4.468 62.0761 4.732C62.0761 4.996 62.2921 5.212 62.5681 5.212ZM62.2681 13H62.8681V6.736H62.2681V13ZM70.365 4.096V8.188C69.861 7.24 68.925 6.688 67.809 6.688C66.045 6.688 64.713 7.984 64.713 9.868C64.713 11.74 66.045 13.048 67.809 13.048C68.937 13.048 69.885 12.496 70.377 11.524V13H70.965V4.096H70.365ZM67.845 12.508C66.405 12.508 65.325 11.44 65.325 9.868C65.325 8.296 66.405 7.228 67.845 7.228C69.285 7.228 70.365 8.296 70.365 9.868C70.365 11.44 69.285 12.508 67.845 12.508ZM75.9427 13.048C77.7427 13.048 79.0747 11.728 79.0747 9.868C79.0747 8.008 77.7427 6.688 75.9427 6.688C74.1427 6.688 72.8107 8.008 72.8107 9.868C72.8107 11.728 74.1427 13.048 75.9427 13.048ZM75.9427 12.508C74.5027 12.508 73.4227 11.44 73.4227 9.868C73.4227 8.296 74.5027 7.228 75.9427 7.228C77.3827 7.228 78.4627 8.296 78.4627 9.868C78.4627 11.44 77.3827 12.508 75.9427 12.508ZM87.1621 6.688C86.0341 6.688 85.0861 7.252 84.5941 8.212V6.736H84.0181V15.328H84.6181V11.572C85.1221 12.508 86.0581 13.048 87.1621 13.048C88.9261 13.048 90.2581 11.752 90.2581 9.868C90.2581 7.996 88.9261 6.688 87.1621 6.688ZM87.1261 12.508C85.6861 12.508 84.6061 11.44 84.6061 9.868C84.6061 8.296 85.6861 7.228 87.1261 7.228C88.5661 7.228 89.6581 8.296 89.6581 9.868C89.6581 11.44 88.5661 12.508 87.1261 12.508ZM94.5638 13.048C96.3638 13.048 97.6958 11.728 97.6958 9.868C97.6958 8.008 96.3638 6.688 94.5638 6.688C92.7638 6.688 91.4318 8.008 91.4318 9.868C91.4318 11.728 92.7638 13.048 94.5638 13.048ZM94.5638 12.508C93.1238 12.508 92.0438 11.44 92.0438 9.868C92.0438 8.296 93.1238 7.228 94.5638 7.228C96.0038 7.228 97.0838 8.296 97.0838 9.868C97.0838 11.44 96.0038 12.508 94.5638 12.508ZM100.133 8.104V6.736H99.5572V13H100.157V9.736C100.157 8.188 100.985 7.264 102.377 7.264C102.425 7.264 102.473 7.276 102.521 7.276V6.688C101.345 6.688 100.517 7.192 100.133 8.104ZM104.22 7.708C104.496 7.708 104.724 7.48 104.724 7.192C104.724 6.904 104.496 6.688 104.22 6.688C103.944 6.688 103.716 6.904 103.716 7.192C103.716 7.48 103.944 7.708 104.22 7.708ZM104.22 13.048C104.496 13.048 104.724 12.82 104.724 12.532C104.724 12.244 104.496 12.028 104.22 12.028C103.944 12.028 103.716 12.244 103.716 12.532C103.716 12.82 103.944 13.048 104.22 13.048Z" fill="white"></path><path d="M115.608 0.689177L115.608 17.2031L115.787 17.2031L115.787 0.689177L115.608 0.689177Z" fill="white"></path><path d="M116.334 0.637032C116.334 0.285163 116.049 0.000627236 115.697 0.000627251C115.345 0.000627267 115.061 0.285163 115.061 0.637032C115.061 0.988901 115.345 1.27344 115.697 1.27344C116.049 1.27344 116.334 0.988901 116.334 0.637032Z" fill="white"></path><path d="M116.334 17.2552C116.334 16.9033 116.049 16.6188 115.697 16.6188C115.345 16.6188 115.061 16.9033 115.061 17.2552C115.061 17.6071 115.345 17.8916 115.697 17.8916C116.049 17.8916 116.334 17.6071 116.334 17.2552Z" fill="white"></path><path d="M115.467 8.94527C115.467 4.59035 119.01 1.04776 123.365 1.04776L123.365 1.50606C119.264 1.50606 115.925 4.8423 115.925 8.94527C115.925 13.0482 119.264 16.3845 123.367 16.3845L123.367 16.8428C119.012 16.8428 115.467 13.3002 115.467 8.94527Z" fill="white"></path><path d="M123.877 16.831L123.877 16.4596C123.877 16.2101 123.675 16.0078 123.425 16.0078L123.182 16.0078C122.933 16.0078 122.73 16.2101 122.73 16.4596L122.73 16.831C122.73 17.0805 122.933 17.2828 123.182 17.2828L123.425 17.2828C123.675 17.2828 123.877 17.0805 123.877 16.831Z" fill="white"></path><path d="M123.877 1.4316L123.877 1.06018C123.877 0.810669 123.675 0.608398 123.425 0.608398L123.182 0.608398C122.933 0.608398 122.73 0.810669 122.73 1.06018L122.73 1.4316C122.73 1.68111 122.933 1.88338 123.182 1.88338L123.425 1.88338C123.675 1.88338 123.877 1.68111 123.877 1.4316Z" fill="white"></path><path d="M116.147 9.12984L116.147 8.75842C116.147 8.50891 115.945 8.30664 115.695 8.30664L115.452 8.30664C115.202 8.30664 115 8.50891 115 8.75842L115 9.12984C115 9.37935 115.202 9.58162 115.452 9.58162L115.695 9.58162C115.945 9.58162 116.147 9.37935 116.147 9.12984Z" fill="white"></path><path d="M124.451 8.66043V6.68278H123.037V4.76007L120.977 5.37809V6.68278H119.878V8.66043H120.977V11.0913C120.977 13.014 121.76 13.8243 124.451 13.5496V11.6818C123.545 11.7368 123.037 11.6818 123.037 11.0913V8.66043H124.451Z" fill="white"></path><path d="M128.955 6.49051C128.049 6.49051 127.362 6.82012 126.991 7.32826V3.93605H124.931V13.5496H126.991V9.80032C126.991 8.82523 127.513 8.38576 128.268 8.38576C128.928 8.38576 129.463 8.78403 129.463 9.63552V13.5496H131.523V9.33338C131.523 7.47933 130.342 6.49051 128.955 6.49051Z" fill="white"></path><path d="M133.281 6.0785C133.954 6.0785 134.517 5.51542 134.517 4.84247C134.517 4.16952 133.954 3.60645 133.281 3.60645C132.608 3.60645 132.045 4.16952 132.045 4.84247C132.045 5.51542 132.608 6.0785 133.281 6.0785ZM132.251 13.5496H134.311V6.68278H132.251V13.5496Z" fill="white"></path><path d="M140.117 6.68278V7.32826C139.664 6.80639 138.991 6.49051 138.071 6.49051C136.272 6.49051 134.789 8.06988 134.789 10.1162C134.789 12.1625 136.272 13.7419 138.071 13.7419C138.991 13.7419 139.664 13.426 140.117 12.9041V13.5496H142.178V6.68278H140.117ZM138.483 11.7917C137.536 11.7917 136.849 11.1462 136.849 10.1162C136.849 9.08617 137.536 8.44069 138.483 8.44069C139.431 8.44069 140.117 9.08617 140.117 10.1162C140.117 11.1462 139.431 11.7917 138.483 11.7917Z" fill="white"></path><path d="M148.042 6.68278V7.3832C147.589 6.82012 146.93 6.49051 146.037 6.49051C144.087 6.49051 142.659 8.08362 142.659 9.97886C142.659 11.8741 144.087 13.4672 146.037 13.4672C146.93 13.4672 147.589 13.1376 148.042 12.5745V13.2063C148.042 14.1814 147.452 14.6758 146.491 14.6758C145.584 14.6758 145.186 14.2912 144.925 13.8105L143.167 14.8268C143.799 15.953 144.994 16.4886 146.422 16.4886C148.248 16.4886 150.048 15.5135 150.048 13.2063V6.68278H148.042ZM146.381 11.572C145.406 11.572 144.719 10.9265 144.719 9.97886C144.719 9.03124 145.406 8.38576 146.381 8.38576C147.356 8.38576 148.042 9.03124 148.042 9.97886C148.042 10.9265 147.356 11.572 146.381 11.572Z" fill="white"></path><path d="M154.168 13.7419C156.187 13.7419 157.808 12.1625 157.808 10.1162C157.808 8.06988 156.187 6.49051 154.168 6.49051C152.149 6.49051 150.529 8.06988 150.529 10.1162C150.529 12.1625 152.149 13.7419 154.168 13.7419ZM154.168 11.7368C153.276 11.7368 152.589 11.0913 152.589 10.1162C152.589 9.14111 153.276 8.49563 154.168 8.49563C155.061 8.49563 155.748 9.14111 155.748 10.1162C155.748 11.0913 155.061 11.7368 154.168 11.7368Z" fill="white"></path><path d="M158.904 13.7419C159.618 13.7419 160.208 13.1513 160.208 12.4372C160.208 11.723 159.618 11.1325 158.904 11.1325C158.19 11.1325 157.599 11.723 157.599 12.4372C157.599 13.1513 158.19 13.7419 158.904 13.7419Z" fill="white"></path><path d="M168.535 6.53171C169.286 6.53171 169.89 6.76518 170.348 7.23213C170.805 7.69907 171.034 8.35371 171.034 9.19604V13.5496H170.348V9.19604C170.348 8.55514 170.178 8.06073 169.839 7.71281C169.51 7.36489 169.07 7.19093 168.521 7.19093C167.908 7.19093 167.409 7.40151 167.024 7.82268C166.649 8.24384 166.461 8.87559 166.461 9.71792V13.5496H165.774V9.19604C165.774 8.55514 165.614 8.06073 165.294 7.71281C164.982 7.36489 164.557 7.19093 164.016 7.19093C163.412 7.19093 162.904 7.40609 162.492 7.83641C162.089 8.25758 161.888 8.88475 161.888 9.71792V13.5496H161.201V6.68278H161.888V7.86388C162.364 6.97577 163.101 6.53171 164.099 6.53171C164.602 6.53171 165.042 6.65532 165.417 6.90252C165.793 7.14057 166.067 7.48391 166.241 7.93255C166.479 7.4656 166.8 7.11768 167.203 6.88879C167.615 6.65074 168.059 6.53171 168.535 6.53171Z" fill="white"></path><path d="M174.831 6.53171C175.838 6.53171 176.653 6.88879 177.275 7.60294C177.907 8.31709 178.223 9.164 178.223 10.1437C178.223 10.1803 178.218 10.2352 178.209 10.3085C178.209 10.3817 178.209 10.4366 178.209 10.4733H171.988C172.07 11.2424 172.377 11.8649 172.908 12.341C173.448 12.808 174.112 13.0415 174.899 13.0415C175.449 13.0415 175.929 12.927 176.341 12.6981C176.753 12.4692 177.065 12.1671 177.275 11.7917L177.879 12.1488C177.596 12.6249 177.193 13.0048 176.671 13.2887C176.149 13.5633 175.554 13.7007 174.886 13.7007C173.833 13.7007 172.967 13.3665 172.29 12.6981C171.612 12.0206 171.274 11.16 171.274 10.1162C171.274 9.09075 171.603 8.23926 172.262 7.56174C172.931 6.87505 173.787 6.53171 174.831 6.53171ZM174.831 7.19093C174.052 7.19093 173.402 7.43356 172.88 7.91881C172.359 8.40407 172.061 9.03124 171.988 9.80032H177.509C177.435 8.98546 177.142 8.34913 176.63 7.89134C176.126 7.4244 175.526 7.19093 174.831 7.19093Z" fill="white"></path><path d="M184.648 3.93605H185.335V13.5496H184.648V11.9565C184.364 12.4967 183.962 12.9224 183.44 13.2337C182.927 13.545 182.346 13.7007 181.696 13.7007C180.707 13.7007 179.864 13.3573 179.169 12.6707C178.482 11.9748 178.139 11.1233 178.139 10.1162C178.139 9.10906 178.482 8.26215 179.169 7.57547C179.864 6.87963 180.707 6.53171 181.696 6.53171C182.346 6.53171 182.927 6.68736 183.44 6.99866C183.962 7.30995 184.364 7.7357 184.648 8.27589V3.93605ZM179.663 12.19C180.231 12.7576 180.922 13.0415 181.737 13.0415C182.552 13.0415 183.238 12.7576 183.797 12.19C184.364 11.6223 184.648 10.9311 184.648 10.1162C184.648 9.30133 184.364 8.61007 183.797 8.04241C183.238 7.47476 182.552 7.19093 181.737 7.19093C180.922 7.19093 180.231 7.47476 179.663 8.04241C179.104 8.61007 178.825 9.30133 178.825 10.1162C178.825 10.9311 179.104 11.6223 179.663 12.19Z" fill="white"></path><path d="M189.298 6.53171C190.305 6.53171 191.12 6.88879 191.742 7.60294C192.374 8.31709 192.69 9.164 192.69 10.1437C192.69 10.1803 192.685 10.2352 192.676 10.3085C192.676 10.3817 192.676 10.4366 192.676 10.4733H186.455C186.537 11.2424 186.844 11.8649 187.375 12.341C187.915 12.808 188.579 13.0415 189.366 13.0415C189.916 13.0415 190.396 12.927 190.808 12.6981C191.22 12.4692 191.532 12.1671 191.742 11.7917L192.346 12.1488C192.063 12.6249 191.66 13.0048 191.138 13.2887C190.616 13.5633 190.021 13.7007 189.353 13.7007C188.3 13.7007 187.434 13.3665 186.757 12.6981C186.079 12.0206 185.741 11.16 185.741 10.1162C185.741 9.09075 186.07 8.23926 186.729 7.56174C187.398 6.87505 188.254 6.53171 189.298 6.53171ZM189.298 7.19093C188.519 7.19093 187.869 7.43356 187.347 7.91881C186.826 8.40407 186.528 9.03124 186.455 9.80032H191.976C191.902 8.98546 191.609 8.34913 191.097 7.89134C190.593 7.4244 189.993 7.19093 189.298 7.19093Z" fill="white"></path><path d="M193.787 4.86994C193.677 4.97065 193.549 5.02101 193.402 5.02101C193.256 5.02101 193.127 4.97065 193.018 4.86994C192.908 4.76007 192.853 4.62731 192.853 4.47167C192.853 4.32517 192.908 4.20157 193.018 4.10086C193.127 3.99099 193.256 3.93605 193.402 3.93605C193.549 3.93605 193.677 3.99099 193.787 4.10086C193.897 4.20157 193.951 4.32517 193.951 4.47167C193.951 4.62731 193.897 4.76007 193.787 4.86994ZM193.059 13.5496V6.68278H193.745V13.5496H193.059Z" fill="white"></path><path d="M195.312 8.02868C195.725 7.06733 196.489 6.58665 197.606 6.58665V7.24586C196.956 7.24586 196.411 7.45644 195.972 7.87761C195.532 8.28962 195.312 8.90763 195.312 9.73165V13.5496H194.626V6.68278H195.312V8.02868Z" fill="white"></path><path d="M200.491 13.7007C199.484 13.7007 198.628 13.3573 197.923 12.6707C197.227 11.9748 196.879 11.1233 196.879 10.1162C196.879 9.10906 197.227 8.26215 197.923 7.57547C198.628 6.87963 199.484 6.53171 200.491 6.53171C201.489 6.53171 202.336 6.87963 203.032 7.57547C203.737 8.26215 204.089 9.10906 204.089 10.1162C204.089 11.1233 203.737 11.9748 203.032 12.6707C202.336 13.3573 201.489 13.7007 200.491 13.7007ZM198.417 12.19C198.985 12.7576 199.676 13.0415 200.491 13.0415C201.306 13.0415 201.993 12.7576 202.551 12.19C203.11 11.6223 203.389 10.9311 203.389 10.1162C203.389 9.30133 203.11 8.61007 202.551 8.04241C201.993 7.47476 201.306 7.19093 200.491 7.19093C199.676 7.19093 198.985 7.47476 198.417 8.04241C197.859 8.61007 197.58 9.30133 197.58 10.1162C197.58 10.9311 197.859 11.6223 198.417 12.19Z" fill="white"></path><path d="M204.839 8.48189C204.839 8.82065 204.981 9.08617 205.265 9.27844C205.548 9.47071 205.896 9.61721 206.308 9.71792C206.72 9.80948 207.128 9.91477 207.531 10.0338C207.943 10.1528 208.291 10.3542 208.574 10.6381C208.858 10.9127 209 11.2836 209 11.7505C209 12.3182 208.771 12.7851 208.313 13.1513C207.865 13.5176 207.274 13.7007 206.542 13.7007C205.883 13.7007 205.324 13.5633 204.866 13.2887C204.418 13.0048 204.106 12.634 203.932 12.1762L204.523 11.8329C204.651 12.2083 204.889 12.5058 205.237 12.7256C205.594 12.9362 206.029 13.0415 206.542 13.0415C207.055 13.0415 207.476 12.9316 207.805 12.7119C208.144 12.483 208.313 12.1625 208.313 11.7505C208.313 11.4117 208.172 11.1416 207.888 10.9402C207.604 10.7388 207.256 10.5923 206.844 10.5007C206.432 10.4 206.02 10.2902 205.608 10.1711C205.205 10.0521 204.862 9.85526 204.578 9.58058C204.294 9.30591 204.152 8.93968 204.152 8.48189C204.152 7.93255 204.367 7.47018 204.798 7.09479C205.237 6.71941 205.8 6.53171 206.487 6.53171C207.036 6.53171 207.512 6.65532 207.915 6.90252C208.327 7.14973 208.629 7.48391 208.822 7.90508L208.245 8.23469C208.107 7.89592 207.879 7.63956 207.558 7.4656C207.238 7.28249 206.881 7.19093 206.487 7.19093C206.02 7.19093 205.626 7.30995 205.306 7.548C204.994 7.7769 204.839 8.08819 204.839 8.48189Z" fill="white"></path></svg>